<?xml version="1.0" encoding="UTF-8" standalone="no"?>
<!-- Created with Inkscape (http://www.inkscape.org/) -->

<svg
   xmlns:osb="http://www.openswatchbook.org/uri/2009/osb"
   xmlns:dc="http://purl.org/dc/elements/1.1/"
   xmlns:cc="http://creativecommons.org/ns#"
   xmlns:rdf="http://www.w3.org/1999/02/22-rdf-syntax-ns#"
   xmlns:svg="http://www.w3.org/2000/svg"
   xmlns="http://www.w3.org/2000/svg"
   xmlns:xlink="http://www.w3.org/1999/xlink"
   xmlns:sodipodi="http://sodipodi.sourceforge.net/DTD/sodipodi-0.dtd"
   xmlns:inkscape="http://www.inkscape.org/namespaces/inkscape"
   width="147.9501mm"
   height="172.24382mm"
   viewBox="0 0 524.23266 610.31275"
   id="svg2"
   version="1.1"
   inkscape:version="0.91 r13725"
   sodipodi:docname="drawing.svg"
   inkscape:export-filename="/home/mackenza/socbigdata/drawing.png"
   inkscape:export-xdpi="600"
   inkscape:export-ydpi="600">
  <defs
     id="defs4">
    <marker
       inkscape:stockid="Arrow1Mstart"
       orient="auto"
       refY="0"
       refX="0"
       id="Arrow1Mstart"
       style="overflow:visible"
       inkscape:isstock="true">
      <path
         id="path5825"
         d="M 0,0 5,-5 -12.5,0 5,5 0,0 Z"
         style="fill-rule:evenodd;stroke:#000000;stroke-width:1pt"
         transform="matrix(0.4,0,0,0.4,4,0)"
         inkscape:connector-curvature="0" />
    </marker>
    <linearGradient
       inkscape:collect="always"
       id="linearGradient6824">
      <stop
         style="stop-color:#241c1c;stop-opacity:1;"
         offset="0"
         id="stop6826" />
      <stop
         style="stop-color:#241c1c;stop-opacity:0;"
         offset="1"
         id="stop6828" />
    </linearGradient>
    <marker
       inkscape:isstock="true"
       style="overflow:visible"
       id="marker5729"
       refX="0"
       refY="0"
       orient="auto"
       inkscape:stockid="Arrow1Mstart">
      <path
         inkscape:connector-curvature="0"
         transform="matrix(0.4,0,0,0.4,4,0)"
         style="fill:#000000;fill-opacity:1;fill-rule:evenodd;stroke:#833621;stroke-width:1pt;stroke-opacity:1"
         d="M 0,0 5,-5 -12.5,0 5,5 0,0 Z"
         id="path5731" />
    </marker>
    <linearGradient
       inkscape:collect="always"
       id="linearGradient5699">
      <stop
         style="stop-color:#833621;stop-opacity:1;"
         offset="0"
         id="stop5701" />
      <stop
         style="stop-color:#833621;stop-opacity:0;"
         offset="1"
         id="stop5703" />
    </linearGradient>
    <inkscape:path-effect
       effect="skeletal"
       id="path-effect3415"
       is_visible="true"
       pattern="m 80.184098,87.180542 c 0,-2.76 2.24,-5 5,-5 2.76,0 5,2.24 5,5 0,2.76 -2.24,5 -5,5 -2.76,0 -5,-2.24 -5,-5 z"
       copytype="single_stretched"
       prop_scale="1"
       scale_y_rel="false"
       spacing="0"
       normal_offset="0"
       tang_offset="0"
       prop_units="false"
       vertical_pattern="false"
       fuse_tolerance="0" />
    <inkscape:path-effect
       effect="spiro"
       id="path-effect3413"
       is_visible="true" />
    <marker
       inkscape:stockid="Arrow2Mstart"
       orient="auto"
       refY="0"
       refX="0"
       id="Arrow2Mstart"
       style="overflow:visible"
       inkscape:isstock="true">
      <path
         id="path4296"
         style="fill:#000000;fill-opacity:1;fill-rule:evenodd;stroke:#833621;stroke-width:0.625;stroke-linejoin:round;stroke-opacity:1"
         d="M 8.7185878,4.0337352 -2.2072895,0.01601326 8.7185884,-4.0017078 c -1.7454984,2.3720609 -1.7354408,5.6174519 -6e-7,8.035443 z"
         transform="scale(0.6,0.6)"
         inkscape:connector-curvature="0" />
    </marker>
    <linearGradient
       id="linearGradient4204"
       osb:paint="solid">
      <stop
         style="stop-color:#000000;stop-opacity:1;"
         offset="0"
         id="stop4206" />
    </linearGradient>
    <linearGradient
       id="linearGradient4198"
       osb:paint="solid">
      <stop
         style="stop-color:#000000;stop-opacity:1;"
         offset="0"
         id="stop4200" />
    </linearGradient>
    <inkscape:path-effect
       effect="powerstroke"
       id="path-effect4153"
       is_visible="true"
       offset_points="0,0.34362774"
       sort_points="true"
       interpolator_type="Linear"
       interpolator_beta="0.2"
       start_linecap_type="zerowidth"
       linejoin_type="round"
       miter_limit="4"
       end_linecap_type="zerowidth"
       cusp_linecap_type="round" />
    <linearGradient
       inkscape:collect="always"
       xlink:href="#linearGradient4198"
       id="linearGradient4208"
       x1="53.551537"
       y1="540.86871"
       x2="552.55963"
       y2="540.86871"
       gradientUnits="userSpaceOnUse"
       gradientTransform="translate(-15,4)" />
    <marker
       inkscape:stockid="Arrow1Mstart"
       orient="auto"
       refY="0"
       refX="0"
       id="Arrow1Mstart-7"
       style="overflow:visible"
       inkscape:isstock="true">
      <path
         inkscape:connector-curvature="0"
         id="path4278-7"
         d="M 0,0 5,-5 -12.5,0 5,5 0,0 Z"
         style="fill:#000000;fill-opacity:1;fill-rule:evenodd;stroke:#000000;stroke-width:1pt;stroke-opacity:1"
         transform="matrix(0.4,0,0,0.4,4,0)" />
    </marker>
    <linearGradient
       inkscape:collect="always"
       xlink:href="#linearGradient5699"
       id="linearGradient5705"
       x1="13.986171"
       y1="416.76627"
       x2="481.20618"
       y2="416.76627"
       gradientUnits="userSpaceOnUse"
       gradientTransform="matrix(0.5086342,0,0,0.5086342,163.74816,283.33808)" />
    <linearGradient
       inkscape:collect="always"
       xlink:href="#linearGradient6824"
       id="linearGradient6830"
       x1="104.56006"
       y1="539.71381"
       x2="437.3912"
       y2="539.71381"
       gradientUnits="userSpaceOnUse"
       gradientTransform="translate(0,2)" />
  </defs>
  <sodipodi:namedview
     id="base"
     pagecolor="#ffffff"
     bordercolor="#666666"
     borderopacity="1.0"
     inkscape:pageopacity="0"
     inkscape:pageshadow="2"
     inkscape:zoom="1"
     inkscape:cx="144.18557"
     inkscape:cy="182.449"
     inkscape:document-units="px"
     inkscape:current-layer="layer1"
     showgrid="false"
     inkscape:window-width="1366"
     inkscape:window-height="744"
     inkscape:window-x="0"
     inkscape:window-y="24"
     inkscape:window-maximized="1"
     fit-margin-top="0"
     fit-margin-left="0"
     fit-margin-right="0"
     fit-margin-bottom="0"
     showguides="false"
     gridtolerance="6">
    <inkscape:grid
       type="xygrid"
       id="grid4850"
       originx="-11.101129"
       originy="-38.286642" />
  </sodipodi:namedview>
  <metadata
     id="metadata7">
    <rdf:RDF>
      <cc:Work
         rdf:about="">
        <dc:format>image/svg+xml</dc:format>
        <dc:type
           rdf:resource="http://purl.org/dc/dcmitype/StillImage" />
        <dc:title></dc:title>
      </cc:Work>
    </rdf:RDF>
  </metadata>
  <g
     inkscape:groupmode="layer"
     id="layer2"
     inkscape:label="Layer 2"
     style="display:inline"
     transform="translate(-11.101129,-66.841614)">
    <path
       transform="translate(-26.242973,-39.109474)"
       style="display:inline;fill:url(#linearGradient6830);fill-opacity:1;stroke:#000000;stroke-width:0.81590527;stroke-opacity:1"
       id="path3344"
       d="m 435.6514,469.58779 c 0.17792,10.93372 0.68567,21.85992 1.13594,32.78563 0.84049,11.2287 -1.14104,22.29381 -3.72527,33.19073 -3.59281,12.2113 -4.62639,24.86918 -6.28261,37.40449 -1.34342,10.03344 -3.55841,17.32285 -10.02133,25.28756 -5.14126,5.51606 -11.6519,9.4945 -17.89449,13.71025 -6.47198,4.66023 -11.58873,10.70936 -17.90541,15.54318 -21.49873,13.90517 -24.58722,14.5712 -45.51703,18.03544 -7.20298,0.85582 -14.32207,2.26198 -21.52248,3.12605 -6.49979,1.34696 -13.13608,1.70933 -19.75905,1.94856 -7.96905,0.21227 -15.94137,0.23296 -23.9127,0.28322 -6.4873,0.14019 -12.93496,0.0421 -19.39335,-0.53829 -7.98552,-1.0621 -15.8451,-2.6182 -23.37284,-5.42401 -10.65461,-4.96065 -18.48642,-13.92402 -26.81038,-21.80451 -4.13689,-3.95626 -8.46819,-7.78933 -11.89959,-12.35653 -2.86134,-4.96913 -4.73442,-10.39905 -6.69411,-15.74216 -2.20782,-5.61139 -2.75109,-11.584 -3.88136,-17.42695 -0.97069,-2.52252 -3.42062,-3.79299 -5.18059,-5.77625 -1.96512,-2.95404 -2.60954,-6.47163 -3.74316,-9.75313 -0.0477,-0.13807 -2.81029,-7.42081 -2.82492,-7.45939 -1.92581,-5.73394 -3.88033,-11.34177 -6.83804,-16.65561 -4.91551,-11.67784 -10.65347,-22.95525 -17.71742,-33.5547 -0.77943,-1.077 -1.51687,-2.18356 -2.33828,-3.23097 -3.481,-4.43879 -0.68444,-0.19764 -4.11189,-5.14956 -2.28717,-3.30445 -4.16077,-6.83866 -6.19881,-10.28661 -2.04044,-3.57374 -4.62237,-7.01467 -5.62112,-11.03059 -0.48425,-3.70343 0.1067,-7.4468 0.65262,-11.11664 0.65498,-2.18946 1.63375,-4.15947 1.79048,-6.48719 -0.18989,-1.57391 -1.30178,-2.86792 -1.9703,-4.3334 -0.20565,-0.33275 -0.27234,-0.72686 -0.45647,-1.06868 -0.039,-0.0724 0.0402,0.15903 0.0706,0.23518 0.14177,0.35469 0.36441,0.68423 0.44556,1.0563 0.0256,0.1174 -0.25078,0.39142 -0.14272,0.33244 6.89976,-3.76654 13.72374,-7.66138 20.58561,-11.49207 -0.93472,1.53619 -0.99843,3.36358 -1.04508,5.10195 0.0823,4.44479 -0.42433,8.85376 -0.94673,13.26278 -0.91945,9.07038 -3.4879,17.8001 -6.39365,26.4261 -0.84258,2.80056 -2.62181,5.19563 -3.76047,7.86504 -0.38847,2.33123 -0.98217,4.61536 -1.49924,6.92523 -0.71051,3.90491 -1.69984,7.74363 -2.86373,11.54291 -2.52179,8.78159 -0.0909,3.20931 -22.78308,11.28557 -0.62229,0.22148 -0.17872,-1.27414 -0.18248,-1.91526 -0.008,-1.3888 0.35263,-5.18438 0.45544,-6.38935 0.64224,-7.26653 1.34815,-14.54752 2.42129,-21.76844 1.59782,-11.03258 4.26959,-21.89957 7.34577,-32.62595 1.45663,-4.45949 2.54769,-9.11668 5.35067,-12.99113 7.4178,-7.63049 17.6121,-17.25307 28.82256,-15.97601 2.14841,1.43317 4.56164,1.81177 6.99719,2.53123 5.26271,1.43055 10.43818,3.39266 14.80826,6.64241 2.43928,1.81393 4.05688,3.59777 6.1632,5.72271 3.79038,4.55616 6.78618,9.60952 9.19607,14.95262 1.59318,3.46482 3.2815,6.87674 5.25646,10.1541 0.15987,0.33164 0.31974,0.66328 0.4796,0.99492 0,0 -21.51683,11.70741 -21.51683,11.70741 l 0,0 c -0.1175,-0.27956 -0.235,-0.55913 -0.35251,-0.83869 -1.78966,-3.44924 -3.50707,-6.92826 -5.13519,-10.45125 -2.29312,-5.08075 -4.90131,-10.03683 -8.51309,-14.38377 -2.00134,-2.02882 -3.40647,-3.63043 -5.78046,-5.29893 -4.34771,-3.05569 -9.53194,-4.66366 -14.70928,-5.8154 -1.59376,-0.32907 -2.3866,-0.40842 -3.77319,-0.91547 -0.79991,-0.29252 -1.58878,-0.85472 -2.4532,-0.97576 -0.20371,-0.0286 -0.4099,0.0367 -0.61485,0.0551 -7.41628,1.46163 -24.52915,13.55523 18.12313,-10.69208 0.48849,-0.2777 -1.03011,0.46512 -1.50617,0.76235 -1.35723,0.84735 -1.77813,1.39757 -2.91735,2.52556 -3.41432,3.40256 -4.69495,8.06676 -6.36432,12.42018 -3.46654,10.45685 -6.16602,21.19973 -7.10237,32.16882 -1.28459,7.13996 -2.11318,14.39216 -2.60131,21.6185 -0.0345,0.65276 -0.27497,4.91569 -0.28083,5.92134 -0.002,0.44441 0.47293,1.1041 0.0777,1.33111 -7.12603,4.09391 -14.6514,7.50005 -21.97711,11.25007 0.56697,-0.38092 0.27209,-0.11916 0.78009,-0.88283 1.38399,-3.64537 2.55596,-7.35276 3.05623,-11.2199 0.29871,-2.43336 1.25089,-4.66519 1.29152,-7.12014 0.58345,-3.06259 2.79957,-5.37864 4.09517,-8.18047 3.25636,-8.42892 6.13317,-17.02138 6.91145,-26.04998 0.35612,-4.26326 0.56379,-8.49687 0.3465,-12.76956 0.035,-2.05352 0.0816,-4.11048 0.55444,-6.12424 0.88168,-0.53802 19.92685,-21.07417 23.61584,-10.53769 0.72072,1.78208 2.11366,3.24354 2.33081,5.17894 0.16674,2.26985 0.0103,5.10195 -1.56163,6.89293 -0.76602,3.36697 -1.48713,6.85625 -1.12405,10.30947 0.70061,3.84171 3.06061,7.20411 4.83714,10.63815 0.32269,0.56757 3.59641,6.33813 3.88349,6.79195 2.61223,4.12936 6.06414,7.68491 8.52082,11.91198 6.52171,10.90569 12.12792,22.25302 18.01154,33.48471 0.98656,1.62245 2.43665,3.87438 3.23527,5.65028 1.63652,3.6392 1.97062,7.7649 3.69071,11.38559 2.07894,5.42286 3.88406,11.0399 6.60178,16.18247 2.1158,2.23198 4.78441,3.89395 5.67693,6.99925 1.01506,5.75751 1.28272,11.66825 3.46917,17.19484 1.91412,5.10717 3.85716,10.25302 6.59276,15.01172 3.38647,4.39164 7.25303,8.41672 11.16373,12.37183 7.94658,7.83609 15.64427,16.56499 26.33372,20.89789 7.54638,2.46287 15.34898,3.91312 23.26617,4.75398 6.40164,0.48751 12.80861,0.40747 19.22685,0.40203 7.92839,0.025 15.86113,0.0132 23.78331,-0.32465 6.64477,-0.37137 13.24674,-1.0314 19.7951,-2.21324 7.08714,-0.93584 14.14747,-2.06065 21.23026,-3.02493 4.464,-0.72 8.95121,-1.34323 13.32328,-2.5053 8.47553,-2.25274 23.80786,-10.91957 -9.44406,7.07143 2.41884,-1.68221 3.8309,-2.55975 6.04191,-4.52719 4.03592,-3.59129 7.39283,-7.88509 11.82524,-11.07574 6.14363,-4.27896 12.71838,-8.01976 18.16196,-13.17632 6.9014,-7.36502 9.53778,-14.45702 11.03816,-24.30198 1.86337,-12.57073 2.48947,-25.36169 6.19957,-37.61711 2.72949,-10.67691 4.44952,-21.46415 3.66805,-32.5001 -0.10332,-10.84944 -0.28111,-21.72214 -1.41273,-32.52442 0,0 21.61348,-10.83596 21.61348,-10.83596 z"
       inkscape:connector-curvature="0" />
  </g>
  <g
     inkscape:groupmode="layer"
     id="layer4"
     inkscape:label="Layer 4"
     style="display:none"
     transform="translate(-11.101129,-66.841614)">
    <path
       style="display:inline;fill:#000000;fill-opacity:1;stroke:#000000;stroke-width:0.44116873;stroke-miterlimit:4;stroke-dasharray:0.44116873, 0.88233745;stroke-dashoffset:6;stroke-opacity:1"
       id="path4192"
       d="m 87.430544,176.8298 c 1.73992,3.11476 2.60592,6.62106 4.34516,9.74066 1.12606,2.01974 2.3848,3.97336 3.77459,5.8244 2.793589,3.72073 9.070386,10.43562 12.036946,13.69528 13.0106,14.85737 23.87755,31.3541 35.12886,47.5147 2.75187,3.99275 5.63365,7.92362 7.64977,12.35396 1.89571,4.16576 2.11873,6.1196 4.42306,10.25472 1.03126,1.85062 2.33484,3.5385 3.50226,5.30774 1.55948,1.66793 2.97294,3.48296 4.67843,5.00379 7.84795,6.9982 18.77011,11.63623 28.3912,15.76665 5.5385,1.88748 8.54828,4.03153 11.10937,9.16371 1.53125,5.06992 2.31766,10.32112 4.18622,15.29818 1.47638,3.93248 1.9877,4.52564 4.01711,8.13547 0.892,1.14981 1.72451,2.34753 2.676,3.44942 2.93695,3.40119 4.30799,4.23474 7.53585,7.63916 5.28968,5.579 10.07654,11.64408 15.02382,17.51725 5.90375,6.95369 11.49253,14.16362 17.52603,21.00814 2.63053,2.9879 4.40334,6.5623 6.73703,9.75866 2.18243,2.9892 2.34998,2.99562 4.88845,5.67661 3.9109,3.64543 8.19662,6.94961 12.92771,9.48149 0.37647,0.15713 0.81406,0.21392 1.12942,0.47139 1.61301,1.31688 1.5752,3.6606 1.06236,5.43875 -2.79641,5.13331 -10.11652,8.55776 -14.97301,9.43099 -4.85659,-1.40107 8.56339,-5.34475 12.93003,-7.87648 0.0387,-0.0224 -0.0238,0.0901 -0.0115,0.13275 0.0423,0.14617 0.18318,0.32643 0.26749,0.44724 0.26724,0.32811 0.58634,0.59539 0.93574,0.83186 1.18337,0.83266 2.52932,1.37781 3.84076,1.98249 2.65099,1.20874 4.53357,3.39428 6.10102,5.77067 2.38068,3.32029 4.52916,6.79526 6.60473,10.30868 2.33875,4.19763 5.14878,8.11074 7.68022,12.19087 4.47466,7.96452 12.52586,12.27251 19.7836,17.31609 1.89151,1.31446 3.70189,2.7402 5.55284,4.11031 1.76111,1.98101 3.64604,3.86014 5.28334,5.94302 2.90124,3.69082 7.58699,11.07559 10.12063,14.96797 4.15685,6.38605 8.32761,12.6457 12.93823,18.71675 2.72201,3.0399 5.07545,7.10368 9.06325,8.76116 1.57291,0.65375 7.6708,1.86579 9.15175,2.28631 1.59125,0.45183 3.13455,1.05575 4.70183,1.58363 1.69808,1.26648 3.49132,2.41632 5.09424,3.79945 1.01084,0.87223 12.18953,11.80109 12.76261,12.36296 5.62096,5.51109 11.18802,11.07114 16.86243,16.5282 2.95787,2.92248 5.95311,5.80711 8.92727,8.71266 1.34304,1.31205 2.67829,2.55767 3.66525,4.17866 0.63957,1.05045 1.09466,2.20106 1.642,3.30159 2.83316,7.11889 5.41311,14.35292 9.48539,20.88454 0.63732,1.00426 1.29576,1.99565 1.91197,3.01281 2.93201,4.83979 2.63733,4.84927 6.15279,9.97341 4.0348,5.88116 8.60403,11.33911 13.19874,16.78825 6.83929,7.27393 12.90111,15.1574 18.18754,23.59707 1.95144,3.23049 3.67733,6.59789 5.85065,9.69061 1.73145,2.55755 4.4402,4.13436 6.98664,5.79083 3.00717,1.7617 6.11083,3.46679 9.39577,4.67465 0.83787,0.55493 4.93683,3.75566 5.13271,4.59255 0.12144,0.51885 -0.07,1.06304 -0.10494,1.59457 -4.98788,2.46543 -9.81433,5.28249 -14.96363,7.39631 -0.71023,0.29155 -1.52599,-0.18854 -2.28378,-0.31618 -3.79507,-0.63929 -7.42729,-1.76701 -11.04485,-3.04492 -9.95721,-3.35039 -20.13438,-6.06078 -30.29079,-8.75283 -3.7315,-1.04018 -7.46734,-2.06529 -11.21463,-3.04819 -1.54514,-0.40528 -2.90412,-0.74272 -4.49141,-0.78473 4.42651,-2.5144 8.85303,-5.0288 13.27955,-7.5432 0.0988,-0.0868 0.16669,-0.28455 0.29636,-0.26031 0.64305,0.12019 1.21834,0.47935 1.8466,0.66084 1.1807,0.34103 2.37539,0.63494 3.57459,0.90508 4.64005,1.04524 5.66862,1.13047 10.49968,1.90934 7.50332,1.18612 15.04007,2.09938 22.51211,3.473 3.60438,0.52994 7.19642,1.09795 10.82837,1.4203 2.92439,0.23054 5.85852,0.29387 8.79091,0.31671 0.45475,5.1e-4 0.92173,0.10538 1.36427,0.002 0.3873,-0.0909 1.3959,-0.7592 1.04791,-0.56764 -4.11846,2.26699 -8.17179,4.65503 -12.35927,6.79397 -0.25746,0.13151 0.40891,-0.44261 0.47328,-0.72269 0.17968,-0.78179 -0.43692,-1.82906 -0.69019,-2.43123 -2.82319,-4.74418 -4.30233,-10.03263 -5.65036,-15.32889 -0.98049,-3.20969 -1.10211,-5.58668 0.66107,-8.50688 0.47895,-0.96018 1.45716,-1.50318 2.11875,-2.29777 0.69056,-0.82936 0.76245,-1.26457 1.18583,-2.2993 0.20624,-1.568 1.15896,-3.32439 0.93684,-4.94632 4.67198,-2.23471 9.34395,-4.46942 14.01592,-6.70413 0,0 -13.56313,7.56692 -13.56313,7.56692 l 0,0 c 4.56767,-2.47218 9.13533,-4.94436 13.703,-7.41656 -0.48908,0.19335 -1.01511,4.45664 -1.28236,5.03879 -0.64761,2.72552 -0.86854,3.31959 -2.99402,4.99962 -2.22839,2.49044 -2.2674,4.26965 -1.52471,7.49327 1.0575,5.27773 2.51599,10.47564 5.63194,14.96735 0.29417,0.569 2.1593,4.13329 1.20278,4.79878 -7.09087,4.93339 -9.90762,8.62122 -16.66885,8.46972 -2.92594,-0.045 -5.84628,-0.15933 -8.75515,-0.50214 -3.65867,-0.38641 -7.31898,-0.8347 -10.92687,-1.55911 -7.14542,-1.73261 -14.43217,-2.77104 -21.68547,-3.94866 -4.96929,-0.74687 -10.07265,-1.31437 -14.95799,-2.52779 -0.77933,-0.19357 -1.58303,-0.37594 -2.2824,-0.76814 -0.55287,-0.31004 -1.89079,-0.90321 -1.39085,-1.29176 4.10368,-3.18939 8.92183,-5.35225 13.38276,-8.02838 5.02676,1.29381 9.83881,3.3325 14.85894,4.65945 5.67244,1.6383 11.33344,3.28544 17.05575,4.74713 3.19587,0.81634 7.13424,1.721 10.34825,2.64974 1.14742,0.33157 2.27401,0.73034 3.41102,1.0955 3.58117,1.13656 7.23884,2.31926 11.01359,2.61613 0.75814,0.0596 2.88419,-0.4267 2.28128,0.0331 -3.6308,2.76915 -7.79866,4.76589 -11.69799,7.14883 0.42641,0.23609 0.79089,0.70998 1.27922,0.70825 0.30284,-7.3e-4 -0.36389,-0.48065 -0.55854,-0.71078 -0.24432,-0.28885 -0.49169,-0.576 -0.75768,-0.84535 -0.68407,-0.69268 -1.30774,-1.22681 -2.1334,-1.75884 -0.39385,-0.25379 -0.81893,-0.45637 -1.22839,-0.68455 -3.22086,-1.47637 -6.31847,-3.23751 -9.37044,-5.02332 -2.7272,-1.75845 -5.72016,-3.37289 -7.4224,-6.22114 -2.14278,-3.16974 -3.75068,-6.64008 -5.59815,-9.98132 -4.54522,-8.76499 -10.50166,-16.60696 -17.18292,-23.89494 -7.79386,-9.50955 -15.42514,-19.17504 -22.1684,-29.45738 -0.59162,-0.92126 -1.24954,-1.80378 -1.77485,-2.76378 -3.14852,-5.75376 -4.49156,-12.50619 -7.6884,-18.26335 -0.56192,-0.99219 -1.05759,-2.0243 -1.68579,-2.9766 -0.86442,-1.3104 -2.42239,-2.94447 -3.47842,-4.09559 -2.76993,-3.01936 -5.45974,-6.10525 -8.20353,-9.14849 -7.46772,-7.99092 -14.90392,-15.99405 -23.1243,-23.24351 -2.09599,-1.84843 -4.19059,-3.70792 -6.4305,-5.38202 -1.6294,-1.21782 -3.43545,-2.18373 -5.15317,-3.27559 -1.53705,-0.49608 -3.05412,-1.05776 -4.61112,-1.48824 -2.10386,-0.58166 -7.73793,-1.61916 -9.74574,-2.54369 -4.00322,-1.84333 -6.09769,-6.36844 -8.71294,-9.55491 -4.27706,-6.28271 -8.23282,-12.74122 -12.36481,-19.11712 -2.95293,-4.55654 -6.76933,-10.42814 -10.29116,-14.61248 -1.66054,-1.97292 -3.57044,-3.72541 -5.35566,-5.58812 -1.84556,-1.34098 -3.65272,-2.73557 -5.53668,-4.02292 -7.51202,-5.13318 -15.89952,-9.44952 -20.96149,-17.31118 -2.70046,-3.99921 -5.45391,-7.96656 -7.80027,-12.18676 -2.08654,-3.48533 -4.31953,-6.87222 -6.75982,-10.12586 -1.47325,-2.16088 -3.22195,-4.03856 -5.73879,-4.97776 -1.43612,-0.6022 -2.85345,-1.25066 -4.11189,-2.17708 -0.53094,-0.38571 -0.97029,-0.7285 -1.29305,-1.30512 -3.78912,-6.17119 9.43686,-1.60673 12.5422,-10.06488 2.30345,-1.73573 -18.71952,11.14956 -11.40024,6.44898 1.34106,-1.44297 0.97647,-3.26493 -0.90618,-3.98877 -4.5372,-2.95729 -8.77322,-6.39004 -12.66791,-10.13794 -0.87927,-0.94144 -1.79505,-1.85058 -2.63781,-2.82432 -3.41464,-3.94525 -6.01726,-8.47265 -9.30109,-12.5156 -5.69514,-7.05275 -10.46494,-14.80374 -16.37489,-21.69985 -4.91294,-5.90161 -9.81077,-11.78318 -15.34416,-17.13471 -3.45083,-3.33741 -4.94772,-4.14647 -7.98134,-7.63602 -1.00109,-1.15155 -1.84804,-2.42656 -2.77206,-3.63984 -2.12859,-3.87528 -2.48283,-4.21894 -4.09665,-8.39601 -1.86585,-4.82943 -2.90948,-9.90998 -4.71298,-14.75759 -2.39185,-4.63844 -5.026,-6.65044 -9.96156,-8.71135 -9.27974,-4.61268 -20.48003,-9.70332 -28.2144,-16.51218 -1.77847,-1.56565 -3.27198,-3.42344 -4.90798,-5.13516 -1.23362,-1.80784 -2.58406,-3.54245 -3.70089,-5.42352 -2.28739,-3.85261 -2.90996,-6.10176 -4.75799,-10.02239 -1.34082,-2.8446 -2.63364,-5.11625 -4.22796,-7.83347 -0.92398,-1.57476 -1.87967,-3.13102 -2.8195,-4.69653 -10.23854,-16.71776 -20.67735,-33.46013 -34.338826,-47.70742 -3.1412,-3.23241 -9.72649,-9.86514 -12.7538,-13.49966 -1.53172,-1.83895 -2.95712,-3.76895 -4.27851,-5.76199 -1.55734,-2.34892 -2.70915,-5.00419 -4.11154,-7.44922 -0.32618,-0.56868 -0.70734,-1.10455 -1.061,-1.65683 0,0 13.27619,-7.66502 13.27619,-7.66502 z"
       inkscape:connector-curvature="0" />
  </g>
  <g
     inkscape:label="Layer 1"
     inkscape:groupmode="layer"
     id="layer1"
     transform="translate(-37.344102,-105.95108)"
     style="display:inline">
    <rect
       style="opacity:0.85700001;fill:none;fill-opacity:1;stroke:#f2191d;stroke-width:6.29975891;stroke-miterlimit:4;stroke-dasharray:6.29975856, 12.59951712;stroke-dashoffset:28.90639877;stroke-opacity:1"
       id="rect4172"
       width="439.61496"
       height="304.54712"
       x="118.81189"
       y="176.4818" />
    <path
       style="fill:#000000;fill-opacity:1;stroke:#000000;stroke-width:0.81590527;stroke-opacity:1"
       id="path3340"
       d="m 122.91625,388.33828 c -0.0993,-6.76702 2.78276,-13.11592 4.4857,-19.567 0.83782,-3.17377 1.52654,-6.3826 2.2898,-9.57391 3.54935,-15.57909 7.29586,-31.11746 10.69613,-46.72771 3.03561,-15.8937 7.4689,-31.42783 13.30765,-46.56014 3.26404,-6.48001 5.57693,-14.048 10.82946,-19.42134 3.01736,-3.08676 5.57225,-4.24463 9.39065,-6.56231 14.03032,-8.27226 28.60155,-15.60576 42.95088,-23.32555 6.04228,-3.25069 11.99537,-6.5417 18.19661,-9.50106 9.37202,-4.75721 16.88246,-5.25585 27.24398,-5.74942 9.99342,-0.25005 19.94651,-1.20706 29.92637,-1.71974 6.1418,-0.53702 12.20377,-0.3314 18.26738,0.69863 6.58709,1.38976 13.94416,0.85897 20.10538,3.88629 1.60834,0.79027 3.01088,1.92254 4.51631,2.8838 7.77762,6.76814 12.99946,15.59167 19.23038,23.58712 2.58686,3.58884 5.81223,6.76851 7.71028,10.79379 0.33829,0.71744 4.21961,10.6632 4.3584,11.01741 3.09604,7.83196 6.76769,15.42855 10.69609,22.89722 2.76933,4.73731 4.51267,9.92076 6.87675,14.84445 2.23571,4.3042 3.86731,8.94048 6.55662,13.01178 2.93224,8.62269 5.44695,17.37547 7.92196,26.1295 3.1959,14.32408 8.40512,28.07687 13.53768,41.82739 2.70518,7.1341 5.38563,14.27571 7.77387,21.51575 3.16557,9.84211 1.26681,2.13228 -21.37942,13.81992 -0.86337,-1.01304 -1.3994,-2.20162 -1.73279,-3.46127 0.79319,1.50247 -0.75995,-0.68366 -1.04312,-1.0567 -0.0403,-0.0538 -0.12085,-0.22787 -0.12099,-0.16142 -0.003,1.57181 -0.92406,-0.0926 -1.34889,-0.7035 -0.30103,-0.50685 -0.16707,-0.26423 -0.40703,-0.72518 l 21.62797,-11.8105 0,0 c 0.0811,0.21459 0.0339,0.11039 0.14136,0.31267 -0.12014,-0.74456 1.32271,0.43196 1.51096,0.89448 0.50658,0.73436 1.14687,1.30925 1.62705,2.06342 -0.0614,0.64534 0.14896,1.34666 0.62113,1.81041 -27.04839,15.93679 -19.24181,19.57831 -21.09467,10.35729 -1.68692,-7.43941 -4.14519,-14.68573 -6.66231,-21.89468 -5.00831,-13.81311 -10.18128,-27.57878 -14.00102,-41.75948 -2.52165,-8.47352 -4.72908,-17.08693 -8.20454,-25.25244 -2.52788,-4.25828 -4.24217,-8.94573 -6.47939,-13.34942 -2.35724,-4.90798 -4.19267,-10.03447 -6.9299,-14.76648 -3.69229,-7.67173 -6.84835,-15.5726 -10.12474,-23.41509 -1.02346,-2.42044 -3.29443,-7.96694 -4.61482,-10.4718 -2.03064,-3.85226 -5.23561,-6.95098 -7.62236,-10.57951 -5.7086,-7.9824 -10.5973,-16.6999 -18.48409,-22.95391 -1.43753,-0.7849 -2.79694,-1.72193 -4.31261,-2.35469 -6.29055,-2.62618 -13.51651,-2.10815 -20.10838,-3.42311 -5.94492,-0.73071 -11.88619,-0.80056 -17.86847,-0.396 -9.85599,0.4606 -19.70009,1.13745 -29.56129,1.49648 -4.38211,0.32823 -7.05391,0.41064 -11.31836,1.15947 -5.41377,0.95064 -10.4354,3.15841 -15.40283,5.35747 -20.54661,10.2422 -20.54661,10.2422 -25.40102,13.30216 -2.56316,1.61568 -10.57335,5.89724 -8.01575,4.28507 4.17311,-2.6305 8.5801,-4.89668 12.87016,-7.34503 -2.46802,1.38221 -6.9992,3.70699 -9.3181,5.6933 -5.77463,4.94637 -8.33939,12.61875 -11.77433,19.02213 -2.35177,5.72404 -3.90628,9.20285 -5.81881,15.15522 -3.24875,10.11107 -5.40604,20.48779 -7.27066,30.90551 -3.47932,15.76004 -8.40313,31.21044 -11.43957,47.07284 -1.82131,9.2385 -1.56116,8.42366 -3.54002,16.78271 -0.56938,2.40517 -1.34006,4.76949 -1.76946,7.20167 -0.29252,1.65679 -1.61513,32.78619 -1.57438,34.40166 z"
       inkscape:connector-curvature="0"
       sodipodi:nodetypes="cscccscsccccsccsccccccccccccccccccccccccccsccscccscsscscsccsscc" />
    <path
       style="opacity:0.48300003;fill:none;fill-opacity:1;stroke:url(#linearGradient4208);stroke-width:5.15100002;stroke-miterlimit:4;stroke-dasharray:5.151, 10.302;stroke-dashoffset:46.56927109;stroke-opacity:1"
       d="m 41.109375,429.27344 c -0.05664,77.30143 -0.113281,154.60286 -0.169922,231.90429 164.681637,-0.22265 329.363277,-0.44531 494.044927,-0.66796 0,-77.09441 -10e-6,-154.18881 0,-231.28321 -164.625,0.0156 -329.25001,0.0312 -493.875005,0.0469 z"
       id="rect4190"
       inkscape:connector-curvature="0"
       inkscape:export-xdpi="600"
       inkscape:export-ydpi="600" />
    <path
       style="opacity:1;fill:#241c1c;fill-opacity:1;stroke:#120000;stroke-width:2;stroke-linejoin:round;stroke-miterlimit:4;stroke-dasharray:none;stroke-dashoffset:23.18000031;stroke-opacity:1"
       id="path4139"
       d="m 367.98383,367.18015 c 3.16286,3.47011 5.45067,7.60679 7.79988,11.64087 0.32469,0.38806 5.03289,8.32902 1.79527,3.86499 3.21661,0.75411 6.30572,2.81966 8.94413,4.77004 1.35453,0.43469 1.80505,2.21359 3.009,2.82519 0.82638,0.4198 1.94289,0.74529 2.8447,1.06185 4.07882,1.66059 7.50822,4.36956 11.11668,6.7951 4.48472,2.66824 8.0697,6.2979 11.60612,10.0789 -0.59201,0.97643 1.72311,1.10373 1.6698,1.96047 -0.0133,0.2139 -0.32274,-0.33057 -0.53558,-0.35572 -1.56706,-0.18522 -3.20962,0.16892 -4.72641,-0.26621 -0.88469,-0.2538 -1.15862,0.62645 -0.2811,0.34885 1.04786,-0.31443 1.79679,-1.05096 1.51251,-1.94356 -0.43684,-1.37158 0.0532,-2.87844 0.0745,-4.31775 0.0375,-2.53419 0.0523,-8.15138 0.28065,-10.62774 0.16721,-1.81355 0.52408,-3.60459 0.78613,-5.40688 0.8852,-4.08053 1.60204,-8.21239 2.92208,-12.18451 0.52448,-1.57821 1.3092,-3.08851 1.9227,-4.63361 0.18424,-0.86223 1.04448,-1.39046 1.34211,-2.19465 0.21423,-0.57885 0.27615,-1.20404 0.45271,-1.79548 0.74199,-2.48556 1.66924,-4.91884 2.58713,-7.34313 0.17627,-0.64121 9.24436,1.85167 9.06809,2.49288 l 0,0 c -1.1366,4.29164 -2.54295,8.67432 -5.19737,12.29497 -0.5977,0.5709 -0.48025,2.44146 -0.58155,3.11128 -0.58153,3.84526 -1.48324,7.62968 -2.0884,11.47108 -0.87175,7.16568 -0.37659,2.05027 -0.76142,9.97546 -0.12333,2.53985 -0.32643,8.58211 -1.20699,11.09876 -0.73403,2.09785 -1.80658,4.09149 -3.07658,5.91546 -0.34081,0.48949 -1.06667,0.53405 -1.60001,0.80108 -0.26684,0.0412 -0.53369,0.0823 -0.80053,0.12347 -0.0856,-0.0617 -0.15136,-0.18423 -0.25688,-0.18498 -6.22943,-0.0445 -5.05456,0.95762 -8.90826,-2.36354 -3.32588,-3.18232 -6.40597,-6.67082 -10.24599,-9.25266 -3.15108,-2.20121 -6.81308,-3.65971 -9.9537,-5.9068 -2.55644,-1.28752 -4.84984,-2.89874 -7.07545,-4.69339 -2.50425,-1.54519 -5.01377,-3.09698 -7.63775,-4.43011 -2.09335,-2.04006 -3.73551,-4.32674 -5.32038,-6.80415 -2.36363,-3.72586 -4.59906,-7.51987 -7.08273,-11.16085 -0.33693,-0.53761 7.26592,-5.30258 7.60285,-4.76498 z"
       inkscape:connector-curvature="0"
       sodipodi:nodetypes="ccccscccccscssccscssccccscssccccccccccccc" />
    <text
       xml:space="preserve"
       style="font-style:normal;font-variant:normal;font-weight:normal;font-stretch:normal;font-size:9.37324047px;line-height:125%;font-family:Sawasdee;-inkscape-font-specification:Sawasdee;text-align:start;letter-spacing:0px;word-spacing:0px;writing-mode:lr-tb;text-anchor:start;fill:#000000;fill-opacity:1;stroke:none;stroke-width:1px;stroke-linecap:butt;stroke-linejoin:miter;stroke-opacity:1"
       x="48.129566"
       y="129.89194"
       id="text5123"
       sodipodi:linespacing="125%"><tspan
         sodipodi:role="line"
         x="48.129566"
         y="129.89194"
         id="tspan5125"><tspan
           x="48.129566"
           y="129.89194"
           style="font-style:normal;font-variant:normal;font-weight:bold;font-stretch:normal;font-size:17.57482338px;line-height:125%;font-family:Sawasdee;-inkscape-font-specification:'Sawasdee Bold';text-align:start;writing-mode:lr-tb;text-anchor:start"
           id="tspan5127">A social framework for big data: </tspan><tspan
           dx="0"
           x="313.36523"
           y="129.89194"
           style="font-style:normal;font-variant:normal;font-weight:bold;font-stretch:normal;font-size:17.57482338px;line-height:125%;font-family:Sawasdee;-inkscape-font-specification:'Sawasdee Bold';text-align:start;writing-mode:lr-tb;text-anchor:start"
           id="tspan5129" /></tspan><tspan
         sodipodi:role="line"
         x="48.129566"
         y="151.86046"
         id="tspan5131"><tspan
           x="48.129566"
           y="151.86046"
           style="font-style:normal;font-variant:normal;font-weight:bold;font-stretch:normal;font-size:17.57482338px;line-height:125%;font-family:Sawasdee;-inkscape-font-specification:'Sawasdee Bold';text-align:start;writing-mode:lr-tb;text-anchor:start"
           id="tspan5133">effects and composition in feedback loops</tspan><tspan
           dx="0"
           x="388.43582"
           y="151.86046"
           style="font-style:normal;font-variant:normal;font-weight:bold;font-stretch:normal;font-size:17.57482338px;line-height:125%;font-family:Sawasdee;-inkscape-font-specification:'Sawasdee Bold';text-align:start;writing-mode:lr-tb;text-anchor:start"
           id="tspan5135" /></tspan></text>
    <path
       style="fill:#000000;fill-rule:evenodd;stroke:#000000;stroke-width:7.97112894;stroke-linecap:butt;stroke-linejoin:miter;stroke-miterlimit:4;stroke-dasharray:none;stroke-opacity:1"
       d="m 431.20657,598.58882 c -0.694,55.56774 -0.66539,83.96442 -0.45606,98.46984 0.10466,7.25249 0.25452,11.0341 0.38201,13.00382 0.0637,0.98474 0.122,1.51862 0.16668,1.80855 0.0223,0.145 0.0415,0.23072 0.0571,0.28312 0.0146,0.0491 0.0283,0.0773 0.046,0.10159 a 0.18464697,0.17047881 46.274618 0 0 0.28375,0.0177 l 24.43306,-31.85727 -24.70482,31.64699 0.28375,0.0177 c 0.0185,0.0253 0.0194,0.0323 0.0143,-0.008 -0.005,-0.0406 -0.0151,-0.11 -0.0297,-0.25177 -0.0287,-0.2784 -0.072,-0.80228 -0.12124,-1.78361 -0.0983,-1.96137 -0.21945,-5.73568 -0.29544,-12.98561 -0.15198,-14.49901 -0.12338,-42.88965 0.62786,-98.45448 z"
       id="path4151"
       inkscape:path-effect="#path-effect4153"
       inkscape:original-d="m 431.55017,598.59329 c -1.44523,111.13249 0,113.57496 0,113.57496 l 24.56894,-31.75213"
       inkscape:connector-curvature="0" />
    <flowRoot
       xml:space="preserve"
       id="flowRoot4453"
       style="font-style:normal;font-variant:normal;font-weight:normal;font-stretch:normal;font-size:12px;line-height:125%;font-family:Sawasdee;-inkscape-font-specification:Sawasdee;text-align:start;letter-spacing:0px;word-spacing:0px;writing-mode:lr-tb;text-anchor:start;fill:#000000;fill-opacity:1;stroke:none;stroke-width:1px;stroke-linecap:butt;stroke-linejoin:miter;stroke-opacity:1"><flowRegion
         id="flowRegion4455"><rect
           id="rect4457"
           width="49.497475"
           height="41.012192"
           x="446.89148"
           y="281.61581" /></flowRegion><flowPara
         id="flowPara4459">blackboxing</flowPara><flowPara
         id="flowPara4461" /></flowRoot>    <text
       xml:space="preserve"
       style="font-style:normal;font-variant:normal;font-weight:normal;font-stretch:normal;font-size:12px;line-height:125%;font-family:Sawasdee;-inkscape-font-specification:Sawasdee;text-align:start;letter-spacing:0px;word-spacing:0px;writing-mode:lr-tb;text-anchor:start;fill:#000000;fill-opacity:1;stroke:none;stroke-width:1px;stroke-linecap:butt;stroke-linejoin:miter;stroke-opacity:1"
       x="248.27449"
       y="473.12195"
       id="text3399"
       sodipodi:linespacing="125%"><tspan
         sodipodi:role="line"
         id="tspan3401"
         x="248.27449"
         y="473.12195" /></text>
    <flowRoot
       xml:space="preserve"
       id="flowRoot3391"
       style="font-style:normal;font-variant:normal;font-weight:normal;font-stretch:normal;font-size:12px;line-height:125%;font-family:Sawasdee;-inkscape-font-specification:Sawasdee;text-align:start;letter-spacing:0px;word-spacing:0px;writing-mode:lr-tb;text-anchor:start;opacity:1;fill:#000000;fill-opacity:1;stroke:none;stroke-width:1px;stroke-linecap:butt;stroke-linejoin:miter;stroke-opacity:1"
       transform="matrix(0.91776853,-0.00202674,0.00288333,1.3056554,-27.310252,-74.31188)"
       inkscape:transform-center-x="6.0583968"
       inkscape:transform-center-y="8.9177738"><flowRegion
         id="flowRegion3393"><rect
           id="rect3395"
           width="213.54625"
           height="16.970562"
           x="309.71277"
           y="395.82874" /></flowRegion><flowPara
         id="flowPara3397"
         style="font-style:normal;font-variant:normal;font-weight:bold;font-stretch:normal;font-size:18.270401px;font-family:Sawasdee;-inkscape-font-specification:'Sawasdee Bold'">social intelligence</flowPara></flowRoot>    <text
       xml:space="preserve"
       style="font-style:normal;font-variant:normal;font-weight:normal;font-stretch:normal;font-size:12px;line-height:125%;font-family:Sawasdee;-inkscape-font-specification:Sawasdee;text-align:start;letter-spacing:0px;word-spacing:0px;writing-mode:lr-tb;text-anchor:start;fill:#000000;fill-opacity:1;stroke:none;stroke-width:1px;stroke-linecap:butt;stroke-linejoin:miter;stroke-opacity:1"
       x="212.91916"
       y="145.73152"
       id="text7072"
       sodipodi:linespacing="125%"><tspan
         sodipodi:role="line"
         id="tspan7074"
         x="212.91916"
         y="145.73152" /></text>
    <text
       xml:space="preserve"
       style="font-style:normal;font-variant:normal;font-weight:normal;font-stretch:normal;font-size:12px;line-height:125%;font-family:Sawasdee;-inkscape-font-specification:Sawasdee;text-align:start;letter-spacing:0px;word-spacing:0px;writing-mode:lr-tb;text-anchor:start;fill:#000000;fill-opacity:1;stroke:none;stroke-width:1px;stroke-linecap:butt;stroke-linejoin:miter;stroke-opacity:1"
       x="162.00746"
       y="142.19598"
       id="text9412"
       sodipodi:linespacing="125%"><tspan
         sodipodi:role="line"
         id="tspan9414"
         x="162.00746"
         y="142.19598" /></text>
    <text
       xml:space="preserve"
       style="font-style:normal;font-variant:normal;font-weight:normal;font-stretch:normal;font-size:15.67944813px;line-height:125%;font-family:Sawasdee;-inkscape-font-specification:Sawasdee;text-align:start;letter-spacing:0px;word-spacing:0px;writing-mode:lr-tb;text-anchor:start;fill:#000000;fill-opacity:1;stroke:none;stroke-width:1px;stroke-linecap:butt;stroke-linejoin:miter;stroke-opacity:1"
       x="405.51971"
       y="217.27518"
       id="text5137"
       sodipodi:linespacing="125%"
       transform="scale(0.92699109,1.078759)"><tspan
         sodipodi:role="line"
         id="tspan5139"
         x="405.51971"
         y="217.27518">social effects of big data</tspan></text>
    <text
       xml:space="preserve"
       style="font-style:normal;font-variant:normal;font-weight:normal;font-stretch:normal;font-size:12.49497223px;line-height:125%;font-family:Sawasdee;-inkscape-font-specification:Sawasdee;text-align:start;letter-spacing:0px;word-spacing:0px;writing-mode:lr-tb;text-anchor:start;fill:#000000;fill-opacity:1;stroke:none;stroke-width:1px;stroke-linecap:butt;stroke-linejoin:miter;stroke-opacity:1"
       x="460.35004"
       y="274.71725"
       id="text5141"
       sodipodi:linespacing="125%"
       transform="scale(0.96038629,1.0412477)"><tspan
         sodipodi:role="line"
         id="tspan5143"
         x="460.35004"
         y="274.71725">blackbox </tspan><tspan
         sodipodi:role="line"
         x="460.35004"
         y="290.33597"
         id="tspan5145">classify </tspan><tspan
         sodipodi:role="line"
         x="460.35004"
         y="305.95468"
         id="tspan5147">discriminate </tspan><tspan
         sodipodi:role="line"
         x="460.35004"
         y="321.57339"
         id="tspan5149">identify risk</tspan></text>
    <text
       xml:space="preserve"
       style="font-style:normal;font-variant:normal;font-weight:normal;font-stretch:normal;font-size:12px;line-height:125%;font-family:Sawasdee;-inkscape-font-specification:Sawasdee;text-align:start;letter-spacing:0px;word-spacing:0px;writing-mode:lr-tb;text-anchor:start;fill:#000000;fill-opacity:1;stroke:none;stroke-width:1px;stroke-linecap:butt;stroke-linejoin:miter;stroke-opacity:1"
       x="224.67645"
       y="456.49677"
       id="text5167"
       sodipodi:linespacing="125%"><tspan
         sodipodi:role="line"
         id="tspan5169"
         x="224.67645"
         y="456.49677">Social intelligence</tspan></text>
    <text
       xml:space="preserve"
       style="font-style:normal;font-variant:normal;font-weight:normal;font-stretch:normal;font-size:21.30733681px;line-height:125%;font-family:Sawasdee;-inkscape-font-specification:Sawasdee;text-align:start;letter-spacing:0px;word-spacing:0px;writing-mode:lr-tb;text-anchor:start;fill:#000000;fill-opacity:1;stroke:none;stroke-width:1px;stroke-linecap:butt;stroke-linejoin:miter;stroke-opacity:1"
       x="191.6823"
       y="517.78168"
       id="text5171"
       sodipodi:linespacing="125%"><tspan
         sodipodi:role="line"
         id="tspan5173"
         x="191.6823"
         y="517.78168">social composition </tspan><tspan
         sodipodi:role="line"
         x="191.6823"
         y="544.41583"
         id="tspan5187">(of big data)</tspan></text>
    <text
       xml:space="preserve"
       style="font-style:normal;font-variant:normal;font-weight:normal;font-stretch:normal;font-size:12px;line-height:125%;font-family:Sawasdee;-inkscape-font-specification:Sawasdee;text-align:start;letter-spacing:0px;word-spacing:0px;writing-mode:lr-tb;text-anchor:start;fill:#000000;fill-opacity:1;stroke:none;stroke-width:1px;stroke-linecap:butt;stroke-linejoin:miter;stroke-opacity:1"
       x="447.33972"
       y="571.82983"
       id="text5175"
       sodipodi:linespacing="125%"><tspan
         sodipodi:role="line"
         id="tspan5177"
         x="447.33972"
         y="571.82983">formatting </tspan><tspan
         sodipodi:role="line"
         id="tspan5179"
         x="447.33972"
         y="586.82983">devices </tspan><tspan
         sodipodi:role="line"
         x="447.33972"
         y="601.82983"
         id="tspan5181">visualizations </tspan><tspan
         sodipodi:role="line"
         x="447.33972"
         y="616.82983"
         id="tspan5183">models</tspan><tspan
         sodipodi:role="line"
         x="447.33972"
         y="631.82983"
         id="tspan5185">predictions</tspan></text>
  </g>
  <g
     inkscape:groupmode="layer"
     id="layer5"
     inkscape:label="soc_int"
     style="display:none"
     transform="translate(-11.101129,-66.841614)">
    <path
       transform="translate(-26.242973,-39.109474)"
       style="display:inline;opacity:0.706;fill:#000000;fill-rule:evenodd;stroke:url(#linearGradient5705);stroke-width:3.20439553;stroke-linecap:butt;stroke-linejoin:miter;stroke-miterlimit:4;stroke-dasharray:none;stroke-opacity:1;marker-end:url(#Arrow2Mstart)"
       d="m 182.85077,388.0331 c 0.15212,0.57101 -2.49784,0.53114 -5.65584,4.09451 -1.2416,1.39979 -2.48705,3.42522 -3.02073,5.96473 0,0 0,1e-5 0,1e-5 -0.41154,1.95235 -0.39643,4.25946 0.35606,6.53725 0.63387,1.92369 1.81528,3.85591 3.53964,5.37715 1.9891,1.80051 4.47133,2.79437 7.56441,4.2763 2.62987,1.19534 5.75245,2.86785 8.02908,5.7696 1.2888,1.74718 2.07582,3.61721 2.80015,5.42924 0.70449,1.66355 1.37193,3.31417 2.35712,4.47799 1.09364,1.41751 2.78316,2.42229 4.68013,4.13614 0.90025,0.79094 1.79827,1.75159 2.54864,2.93996 0.74627,1.16974 1.24962,2.60334 1.30923,4.20285 0,0 1e-5,3e-5 1e-5,3e-5 -0.009,1.38994 -0.28213,2.52023 -0.50579,3.4168 -0.15186,0.87559 -0.31767,1.55854 -0.16974,1.93977 0.0373,0.35486 0.34711,0.79865 0.73687,1.33978 0.41668,0.53422 1.00421,1.09241 1.67495,1.85149 3.88225,4.48236 5.77426,10.485 5.81624,16.63822 0.0717,6.85898 -1.65285,13.37678 -3.75106,20.01719 -1.82894,5.95379 -3.9989,12.29265 -4.47475,18.40097 -0.41032,4.63636 0.0913,9.37805 0.49218,14.65653 0.40946,4.92206 0.69921,10.34997 -0.26467,15.87813 -0.61019,3.32194 -1.99697,7.71261 -2.44796,10.40274 -0.25725,1.55929 -0.39798,3.07328 -0.26248,4.47473 0.13838,1.37552 0.46335,2.68831 1.07519,3.72773 0.81536,1.51847 2.3732,2.77334 4.13572,3.53716 1.75546,0.7623 3.85495,0.9749 5.97035,0.78416 4.19455,-0.31129 8.32621,-2.68973 12.58143,-5.48548 4.01434,-2.75732 8.39788,-6.25684 13.66544,-8.76938 2.62141,-1.24185 5.53425,-2.1768 8.66362,-2.53878 0,10e-6 5e-5,0 5e-5,0 3.10309,-0.36321 6.39887,-0.0283 9.54116,1.20787 3.08034,1.2586 5.743,3.33082 7.73013,5.94439 1.95553,2.57637 3.26079,5.56556 3.86627,8.69112 -1e-5,10e-6 10e-6,5e-5 10e-6,5e-5 1.13406,6.15337 -0.16091,12.42701 -3.09122,17.71538 -2.83389,5.14389 -6.81168,9.38189 -11.16909,12.90312 -4.27427,3.48473 -8.69541,6.31325 -12.99124,9.24691 0,0 -3e-5,2e-5 -3e-5,2e-5 -1.35481,0.97231 -2.49986,1.72383 -3.09796,2.51875 -0.30511,0.38219 -0.54374,0.72977 -0.64766,1.03159 -0.0976,0.29257 -0.16301,0.5448 -0.13125,0.68187 -0.006,0.15543 0.10642,0.40845 0.24939,0.62791 0,0 0,10e-6 0,10e-6 0.14642,0.2303 0.44156,0.46036 0.77514,0.64686 0.63698,0.43308 1.80458,0.4266 2.98219,0.23109 1.22045,-0.22387 2.53709,-0.97121 3.96064,-1.89776 1.41321,-0.95444 2.86416,-2.21234 4.59072,-3.54539 5.74658,-4.42129 12.01155,-7.78333 18.31511,-10.83548 6.1187,-2.98663 12.40989,-5.78972 18.0689,-9.05146 1.20267,-0.70607 2.25795,-1.32636 3.03897,-1.99522 0.75704,-0.67104 1.37293,-1.30048 1.62412,-1.90012 0.46392,-0.73509 0.5229,-1.99896 0.52531,-3.47904 -1e-5,-1e-5 0,-4e-5 0,-4e-5 -0.0487,-1.50277 -0.41665,-3.28144 -0.69891,-5.41175 -0.33361,-2.11518 -0.46579,-4.60052 0.0172,-7.344 0.45868,-2.814 2.01852,-5.62711 4.74837,-7.75744 2.19091,-1.4775 4.52144,-2.16791 6.68263,-2.2191 2.11701,-0.0786 3.9759,0.1648 5.55705,0.4782 0,0 5e-5,10e-6 5e-5,10e-6 1.57547,0.27697 2.89818,0.57447 3.98125,0.63821 1.06533,0.0293 1.93896,0.0287 2.43829,-0.23112 0.87423,-0.17494 1.75893,-1.3558 2.57524,-2.70538 0.79821,-1.44109 1.21508,-3.4443 1.7824,-5.77914 0.49429,-2.34105 1.14641,-5.06827 2.48985,-7.92804 1.31692,-2.93932 3.77684,-5.66627 7.35514,-7.33459 1.91537,-0.79144 3.93824,-1.10209 5.92234,-0.94074 1.97161,0.16253 3.83817,0.72758 5.50326,1.63249 3.29525,1.84993 5.70889,4.65661 7.06753,7.83509 1.34121,3.12043 1.86661,6.34743 1.80653,9.40192 0,0 0,5e-5 0,5e-5 -0.0442,3.02571 -0.48802,5.84908 -1.03866,8.46336 -1e-5,-10e-6 -2e-5,5e-5 -2e-5,5e-5 -0.97823,5.18096 -2.3734,9.74825 -1.80706,13.55187 0.24619,1.86952 0.74846,3.61988 1.67093,4.84163 0.88649,1.16791 2.08921,2.14904 3.20202,2.31521 0,-1e-5 2e-5,0 2e-5,0 1.17391,0.35881 2.85545,-0.13176 4.15601,-0.98554 1.36157,-0.88369 2.434,-2.54223 3.14974,-4.3816 1.58689,-3.70754 0.7082,-8.67009 -0.21209,-14.05918 -1.17031,-5.32808 -2.58425,-11.56132 -1.68513,-18.45846 10e-6,0 10e-6,-6e-5 10e-6,-6e-5 0.4911,-3.45947 1.83316,-6.95858 4.18018,-10.03088 0,0 6e-5,-4e-5 6e-5,-4e-5 2.37186,-3.104 5.89508,-5.38811 10.08776,-6.17949 2e-5,2e-5 9e-5,-2e-5 9e-5,-2e-5 3.95352,-0.59943 7.80448,0.23489 10.97255,2.13555 3.11687,1.86899 5.55335,4.42424 7.27191,7.25875 3.33366,5.64019 4.51943,11.52242 5.51584,16.66225 1.19668,4.99453 2.22879,9.64853 4.83293,12.45841 2e-5,-10e-6 3e-5,3e-5 3e-5,3e-5 1.22943,1.40647 2.67619,2.55633 4.15681,2.98782 0,0 3e-5,0 3e-5,0 1.41709,0.41603 3.02703,0.45015 4.04029,-0.12477 -10e-6,-10e-6 2e-5,-10e-6 2e-5,-10e-6 1.01107,-0.41345 1.94491,-1.55324 2.50698,-2.79848 0.58439,-1.2834 0.67781,-2.96314 0.4497,-4.64336 -0.34747,-3.43475 -2.92907,-6.86986 -5.87195,-10.39635 -1.13549,-1.26778 -2.37519,-2.55055 -3.65671,-3.90967 -2.20254,-2.33594 -4.50742,-4.87565 -6.57336,-7.90131 -1.63658,-2.4112 -2.99566,-5.17822 -3.82437,-8.26528 -0.84266,-3.11381 -0.94404,-6.52997 -0.0924,-9.92496 0.96537,-3.3356 2.5249,-5.99264 4.03666,-8.12261 0,0 2e-5,-4e-5 2e-5,-4e-5 1.43644,-2.17779 2.7621,-3.9242 3.40971,-5.54139 0.85795,-2.00547 1.16493,-4.29035 0.74778,-6.30164 -0.40244,-2.00141 -1.48184,-3.94631 -2.96799,-5.15673 -1.15156,-0.98409 -3.51521,-2.12514 -6.14987,-4.6926 0,0 -3e-5,-7e-5 -3e-5,-7e-5 -2.80389,-3.12049 -4.19471,-6.81814 -4.46703,-10.32359 2e-5,0 -10e-6,-7e-5 -10e-6,-7e-5 -0.31678,-3.45139 0.005,-6.57171 0.37913,-9.29844 0.31526,-2.74232 0.6672,-5.13715 0.47535,-7.1781 -0.24022,-1.9895 -0.66488,-3.79959 -1.61257,-4.74286 0,0 -2e-5,-1e-5 -2e-5,-1e-5 -0.59382,-0.77321 -1.63622,-1.39379 -2.79709,-1.84349 -1.18729,-0.45336 -2.63218,-0.60575 -4.17836,-0.60764 0,0 -5e-5,10e-6 -5e-5,10e-6 -3.11961,-0.0321 -6.72023,1.06992 -10.85902,1.9188 0,0 -7e-5,0 -7e-5,0 -2.77294,0.70329 -6.2263,1.11636 -10.1113,0.31973 -1e-5,-2e-5 -8e-5,-2e-5 -8e-5,-2e-5 -2.5469,-0.65406 -4.77807,-1.85328 -6.59516,-3.39595 -1.81435,-1.5339 -3.26787,-3.27325 -4.40787,-5.06919 -2.26175,-3.59805 -3.58921,-7.1658 -4.88359,-10.15133 -4.06054,-9.15963 -10.11679,-17.34459 -17.65153,-23.52643 -7.67367,-6.30087 -16.90184,-10.59212 -26.42379,-12.108 -9.71968,-1.55437 -19.82678,-0.27056 -28.48132,3.74363 -8.86115,4.09787 -16.32865,11.06992 -20.70014,19.43851 -5.42565,10.3375 -6.15021,23.05372 -1.91215,33.39302 4.34892,10.74536 14.11481,19.18687 24.87009,21.67261 5.58698,1.31969 11.4846,1.19241 16.87027,-0.34283 5.51012,-1.56541 10.56794,-4.60869 14.42395,-8.64204 3.95601,-4.12943 6.72514,-9.35034 7.89244,-14.78813 1.20553,-5.58371 0.76078,-11.48724 -1.19936,-16.67448 -3.24149,-9.06993 -11.41446,-16.08078 -19.6941,-21.62553 -9.77421,-6.39434 -18.02534,-9.91242 -27.56492,-16.94817 -14.89349,-11.04304 -24.89325,-26.30333 -29.74827,-41.80512 -5.65195,-18.07573 -4.42503,-36.23566 0.5949,-51.0212 6.42905,-18.9118 18.76121,-32.39743 30.38835,-40.51502 13.43474,-9.37393 26.79897,-12.51532 34.94716,-13.55127 8.56089,-1.08841 13.02335,-0.26596 13.02314,-0.0981 -6.1e-4,0.48295 -4.4588,0.3251 -12.71121,1.99754 -7.85874,1.59265 -20.60793,5.2879 -33.0736,14.66975 -10.80141,8.12429 -22.07718,21.26095 -27.66547,39.10201 -4.37054,13.93297 -5.13181,30.9253 0.39634,47.51346 4.73149,14.22144 14.22886,28.16547 27.98424,38.04521 8.82142,6.37347 17.0381,9.7207 27.46626,16.34674 9.12926,5.6743 18.38329,13.73348 22.97756,25.0803 2.56645,6.6077 3.22129,13.99842 1.75941,21.13618 -1.42847,6.94218 -4.81156,13.51435 -9.78579,18.80908 -4.85379,5.15817 -11.11805,9.02566 -18.06651,11.06708 -6.78908,1.98942 -14.11565,2.22568 -21.15374,0.62405 -13.65937,-3.16359 -25.59669,-13.20668 -31.17143,-26.67497 -5.29946,-12.93207 -4.6079,-28.19911 2.02252,-41.00527 5.33924,-10.27284 14.18547,-18.68551 24.8857,-23.68486 10.43356,-4.86292 22.35322,-6.47419 33.91335,-4.65993 11.29791,1.77994 22.07918,6.70306 31.05235,14.04003 8.78979,7.19196 15.79237,16.54105 20.45864,27.02857 1.53519,3.3848 2.63232,6.50372 4.18175,8.78838 0.76232,1.14031 1.56448,2.13832 2.45029,2.8442 0.87574,0.69101 1.79586,1.22441 2.65746,1.40091 0,0 4e-5,-1e-5 4e-5,-1e-5 1.28366,0.46294 3.26448,0.0209 5.71344,-0.39959 10e-6,-10e-6 5e-5,-10e-6 5e-5,-10e-6 3.65191,-0.82774 7.88507,-2.01242 12.77987,-2.167 10e-6,1e-5 7e-5,0 7e-5,0 2.45291,-0.063 5.05188,0.2742 7.64356,1.16513 2.60722,0.89071 5.07035,2.48975 7.0589,4.78539 -10e-6,2e-5 6e-5,7e-5 6e-5,7e-5 2.56019,3.22542 3.76076,6.91741 3.92646,10.38199 0.21291,3.39761 -0.15005,6.44904 -0.50928,9.13811 -0.29701,2.67611 -0.60756,5.04077 -0.34623,7.0221 0,0 2e-5,3e-5 2e-5,3e-5 0.30389,1.90946 0.8015,3.66577 1.77429,4.49523 10e-6,-2e-5 2e-5,1e-5 2e-5,1e-5 0.6959,0.91576 2.80847,1.81662 5.35921,3.93922 3.33043,2.83105 5.54139,6.68032 6.35222,10.87346 0.79161,4.16021 0.27672,8.41064 -1.37927,12.19541 -1.32558,2.92761 -2.94491,5.21371 -4.28804,7.15393 0,-10e-6 -3e-5,4e-5 -3e-5,4e-5 -1.25622,1.97089 -2.35455,3.61537 -2.65188,5.07741 -0.41559,1.41992 -0.30924,3.14934 0.10345,4.86752 0.42348,1.73277 1.32955,3.48625 2.46492,5.22762 1.42986,2.21127 3.38815,4.30533 5.53514,6.56652 1.24901,1.31544 2.55595,2.68142 3.85593,4.15652 3.69912,3.9539 7.07997,9.09455 8.2702,15.49101 0.5434,3.25211 0.22943,6.73222 -1.10646,10.04214 -1.36312,3.35984 -3.93494,6.2164 -7.41261,7.95232 0,0 -9e-5,0 -9e-5,0 -3.77934,1.71995 -7.86869,1.83898 -11.48147,0.59505 10e-6,-3e-5 -7e-5,-3e-5 -7e-5,-3e-5 -3.56687,-1.23431 -6.52133,-3.4146 -8.68644,-6.07633 0,0 -2e-5,-6e-5 -2e-5,-6e-5 -4.20986,-5.35662 -5.9278,-11.44705 -6.91452,-16.79119 -1.20897,-5.30301 -1.95392,-10.11515 -4.21239,-13.48142 -1.0868,-1.68381 -2.37494,-3.13074 -3.83475,-3.93333 -1.42418,-0.78 -3.05752,-1.21845 -4.32748,-0.93684 0,0 -2e-5,10e-6 -2e-5,10e-6 -1.37537,0.1478 -2.86289,1.21104 -3.96745,2.52686 1e-5,10e-6 -2e-5,3e-5 -2e-5,3e-5 -1.14476,1.36704 -1.83055,3.33461 -2.20159,5.4334 0,0 10e-6,5e-5 10e-6,5e-5 -0.8318,4.26336 0.53987,9.36707 1.56702,15.02028 1.30599,5.73612 2.026,12.47514 -0.23773,19.331 -1.21981,3.47068 -3.4944,6.67345 -6.74048,9.01581 -3.32767,2.38667 -7.59586,3.3658 -11.90215,2.47489 0,0 -7e-5,-5e-5 -7e-5,-5e-5 -3.84382,-0.96417 -6.96668,-3.25559 -8.97967,-6.23489 -1.99114,-2.94569 -3.04429,-6.20279 -3.33508,-9.36634 -0.51163,-6.30184 0.95417,-11.83754 2.01252,-16.51692 0,0 10e-6,-5e-5 10e-6,-5e-5 0.47913,-2.3713 0.86814,-4.576 0.87365,-6.61645 -10e-6,0 0,-4e-5 0,-4e-5 -0.0102,-2.03452 -0.2496,-3.94246 -0.95772,-5.45258 -0.70065,-1.47456 -1.70681,-2.7842 -2.86519,-3.33905 -0.57066,-0.3023 -1.18048,-0.5043 -1.73531,-0.54017 -0.54894,-0.0376 -1.10732,0.0304 -1.52941,0.21759 -0.87958,0.19825 -1.7507,1.40554 -2.55922,2.77794 -0.79215,1.47251 -1.21525,3.51554 -1.79386,5.85828 -0.51393,2.38545 -1.21399,5.12276 -2.62232,7.96354 -1.3998,2.95084 -3.96861,5.60467 -7.59465,7.12803 -2.31902,0.80381 -4.52911,0.98345 -6.45616,0.77518 -1.91682,-0.17442 -3.55133,-0.52197 -4.92495,-0.789 0,0 -5e-5,-10e-6 -5e-5,-10e-6 -1.38416,-0.2336 -2.52302,-0.43926 -3.4067,-0.36386 -0.84894,0.10333 -1.54968,0.21064 -1.79943,0.48253 -0.45595,0.1532 -0.81776,1.07627 -1.12599,2.08589 -0.28777,1.09934 -0.13682,2.58861 0.0443,4.33944 0.2369,1.76882 0.61625,3.82551 0.73218,6.23344 0,0 -10e-6,6e-5 -10e-6,6e-5 0.16746,2.44092 -0.23215,5.19892 -1.53239,7.94658 -1.07528,2.01909 -2.47741,3.60818 -3.98334,4.78881 -1.49,1.1894 -2.96408,2.0845 -4.30127,2.82491 -6.22739,3.50767 -12.71006,6.35321 -18.67463,9.19957 -6.12556,2.94778 -11.89765,5.94021 -16.8731,9.75665 -1.50089,1.14659 -3.10442,2.49384 -5.03987,3.80702 -1.93466,1.34754 -4.26486,2.50694 -6.98228,3.13443 -2.78507,0.66119 -5.9006,0.36824 -8.81191,-1.09974 -1.44994,-0.76903 -2.72957,-1.89197 -3.73103,-3.31932 0,0 -5e-5,-6e-5 -5e-5,-6e-5 -1.0089,-1.44398 -1.60935,-3.16303 -1.71992,-5.02099 -0.0567,-1.57199 0.22476,-3.03645 0.77516,-4.32223 0.54599,-1.28132 1.25549,-2.38273 2.05969,-3.29687 1.62807,-1.80651 3.33482,-3.03701 4.7973,-3.97363 -1e-5,10e-6 3e-5,-2e-5 3e-5,-2e-5 4.46805,-3.00451 8.71727,-5.64316 12.50959,-8.70111 3.81856,-3.1102 7.16224,-6.4934 9.28009,-10.39252 2.12642,-3.94643 3.21954,-8.41378 2.41325,-12.36196 0,0 -10e-6,-3e-5 -10e-6,-3e-5 -0.38126,-2.01149 -1.17006,-3.92774 -2.33687,-5.471 -1.17316,-1.55617 -2.72943,-2.82651 -4.43259,-3.52231 -1.71903,-0.75 -3.78417,-0.94785 -5.83704,-0.77162 0,0 -3e-5,10e-6 -3e-5,10e-6 -2.09304,0.18443 -4.22907,0.86929 -6.31493,1.79457 -4.2145,1.853 -8.32061,5.1146 -12.73438,8.01411 -4.59008,3.14118 -9.9139,5.84984 -16.00724,6.47906 -3.12975,0.28883 -6.36774,-0.15109 -9.37161,-1.43568 -3.07734,-1.3177 -5.71356,-3.62464 -7.39052,-6.64264 -1.11781,-2.10886 -1.68497,-4.34537 -1.82002,-6.50784 -0.14121,-2.17906 0.0584,-4.26035 0.43404,-6.19091 0.0491,-0.25532 2.73791,-10.98113 2.62801,-10.41645 0.92415,-4.48316 0.69795,-9.39843 0.42744,-14.23551 -0.32827,-5.18646 -0.73203,-10.29743 -0.19993,-15.65251 0.76819,-7.07733 3.14952,-13.73213 5.11354,-19.5507 2.14019,-6.51426 3.92088,-12.37462 3.92425,-18.27878 -0.019,-5.21391 -1.30722,-10.16152 -4.2542,-13.5731 -0.50059,-0.59499 -1.12824,-1.23873 -1.78862,-2.10253 -0.68976,-0.86014 -1.27105,-1.98092 -1.5541,-3.338 -0.21169,-1.54173 0.001,-2.83883 0.29723,-3.83213 0.23633,-1.02332 0.49582,-1.77171 0.46588,-2.32038 0,0 0,-2e-5 0,-2e-5 0.0358,-0.61754 -0.22264,-1.33445 -0.59413,-2.02273 -0.39172,-0.71009 -1.01108,-1.38571 -1.70425,-2.06102 -1.53149,-1.44142 -3.35279,-2.68804 -4.98859,-4.77815 -1.35646,-1.84576 -2.13326,-3.82933 -2.75121,-5.55161 -0.70076,-1.83665 -1.25573,-3.42835 -2.16196,-4.68204 -1.43695,-2.17381 -4.11499,-3.66582 -6.55542,-4.98302 -2.96072,-1.5181 -5.69217,-2.84919 -8.06245,-5.11198 -2.04288,-1.99051 -3.33776,-4.40183 -3.97172,-6.76193 -0.74818,-2.79237 -0.58505,-5.49726 0.0508,-7.73461 0,0 0,-1e-5 0,-1e-5 0.82736,-2.90527 2.43503,-5.06971 3.96476,-6.48441 3.889,-3.59379 6.72674,-2.92266 6.68437,-3.08169 z"
       id="path3411"
       inkscape:path-effect="#path-effect3413;#path-effect3415"
       inkscape:original-d="m 182.85077,388.0331 c 0,0 9.35113,33.0886 -5.75454,23.01816 -2.96855,-1.97903 12.08808,7.05286 15.10567,10.07044 2.80252,2.80252 3.05869,6.61152 5.03522,10.07044 2.11803,3.70656 6.14595,6.18406 7.91249,10.07045 0.79993,1.75983 -1.33062,3.92063 -0.71932,5.75454 0.54677,1.64029 2.19618,2.72668 2.87727,4.3159 2.03589,4.7504 4.05277,10.19339 5.03522,15.10566 2.67082,13.35406 -5.59512,25.97706 -8.6318,38.12382 -2.32198,9.28791 0.63661,20.66207 0,30.21134 -0.49599,7.43985 -6.03573,15.11383 -1.43864,20.8602 0.54006,0.67507 55.58805,-10.04274 56.10676,-9.35113 5.62672,7.50229 -24.35687,41.89455 -16.5443,47.47495 4.28303,3.05931 -10.47754,5.55099 -5.75454,7.91249 4.01171,2.00586 15.56748,-0.26589 19.42157,-0.71931 19.90749,-2.34206 21.66811,-7.72341 35.96587,-19.42158 3.94296,-3.22606 4.22872,-1.7133 6.47385,-5.75453 3.67045,-6.60681 -1.24987,-16.0173 3.23693,-22.29884 2.21706,-3.10389 38.17061,34.88554 17.62328,-0.71932 -5.41204,-9.37809 7.68207,-18.9487 14.38634,-23.73747 5.80706,-4.1479 12.59454,45.76818 19.42158,47.47494 2.9286,0.73215 18.91222,-55.28245 21.57952,-53.9488 1.28403,0.64201 36.75821,41.00109 38.12382,41.00109 9.91288,0 -19.55159,-42.03237 -14.38635,-51.07153 2.42603,-4.24556 5.61636,-8.21728 7.19317,-12.94771 1.90397,-5.71192 0.74752,-12.91952 -3.59658,-17.26362 -1.474,-1.474 -4.57872,-2.55218 -5.75454,-4.31591 -1.96851,-2.95276 -5.07159,-28.38217 -5.03522,-31.2903 1.3847,-110.74874 -19.59154,7.04292 -22.6585,-2.15796 -0.75823,-2.27468 -7.61509,2.73887 -7.91249,0.35966 -0.0731,-0.58465 -12.09264,-15.75421 -12.58806,-15.82498 -6.33028,-0.90432 -95.61139,-11.21649 -101.78341,-12.58805 -4.65047,-1.03344 73.08462,17.09669 68.67039,15.331 -1.42549,-0.5702 -37.10057,-30.33011 -48.85142,-40.00037 -1170.88519,-963.56922 25.44284,-117.30006 47.13749,-144.15932"
       inkscape:connector-curvature="0"
       sodipodi:nodetypes="csssssssssssssssssssssssssssssssssc" />
  </g>
  <g
     inkscape:groupmode="layer"
     id="layer3"
     inkscape:label="Layer 3"
     style="display:none"
     transform="translate(-11.101129,-66.841614)">
    <path
       style="opacity:0.96199999;fill:#22280b;fill-opacity:1;stroke:#833621;stroke-width:0;stroke-linejoin:round;stroke-miterlimit:4;stroke-dasharray:none;stroke-dashoffset:28.90639877;stroke-opacity:1"
       id="path7077"
       d="m 373.68686,426.77854 c 2.74446,3.33491 5.06052,7.00134 7.31529,10.6776 0.97365,1.78986 2.3458,3.39966 3.11376,5.30357 0.62786,1.55656 0.58372,1.9485 0.84574,3.64069 0.19442,5.20545 -0.3121,10.41228 -0.56882,15.6107 -0.32758,4.91706 -0.15942,9.83561 0.0188,14.75287 0.23601,5.51924 0.11338,11.04269 0.0655,16.56405 0.24664,4.72741 -0.8566,9.27388 -2.04899,13.79851 -0.88341,3.98101 -2.37211,7.76648 -3.69618,11.60924 -0.93865,3.01076 -1.82806,6.1548 -3.97971,8.5635 -0.35359,0.39584 -0.77162,0.72903 -1.15742,1.09355 -0.38205,0.26126 -0.74946,0.54532 -1.14613,0.78379 -0.33298,0.20017 -0.70183,0.33527 -1.03834,0.52943 -1.08,0.62314 -1.67137,1.89761 -2.31557,2.89907 -1.83742,2.80372 -3.29545,5.79985 -4.83841,8.76317 -0.60416,1.38023 -1.83033,2.10951 -2.94068,3.0142 -0.61375,0.50008 -1.81299,1.65355 -2.31343,2.12458 -2.59697,2.91629 -5.41213,5.64622 -8.60171,7.91226 -1.99816,1.41959 -3.03266,1.96276 -5.12599,3.18472 -3.55711,2.10619 -7.56073,3.28275 -11.21037,5.19357 -2.08411,1.09116 -2.63943,1.59442 -4.52205,2.95688 -2.80511,2.3499 -5.11172,5.28873 -8.28764,7.19167 -2.42002,1.45002 -3.3738,1.57233 -6.05074,2.40904 -1.12693,0.25382 -6.82359,1.06845 -7.79965,-0.12508 -2.84789,-3.48243 0.25815,-4.65137 2.75778,-5.47252 3.24349,-0.59461 5.90124,-1.96018 4.9563,3.89674 -0.086,0.53295 -1.04851,0.26227 -1.58095,0.35138 -0.77807,0.13023 -1.56454,0.20402 -2.34681,0.30603 -6.80239,0.73821 -13.63276,0.1535 -20.41907,-0.44177 -2.87885,-0.16328 -5.72782,-0.61896 -8.56305,-1.12312 -0.36773,-0.0654 -1.44134,-0.05 -1.10156,-0.20505 0.56568,-0.25817 1.24006,-0.0941 1.86009,-0.14113 0.13065,0.0672 0.34464,0.0624 0.39196,0.20145 0.15206,0.44686 0.11546,0.93718 0.15553,1.4075 0.15197,1.78374 0.28242,3.52099 -0.10766,5.27644 -0.69865,2.25523 -3.27663,3.08273 -4.92389,1.15157 -0.60962,-0.71468 -0.63298,-1.01768 -0.90125,-1.83457 -0.31971,-0.77035 -0.21736,-0.0525 0.18238,0.075 1.89212,0.6037 1.58749,0.71601 2.40894,0.22077 -1.13029,0.9704 -2.90545,0.98349 -4.45873,1.02222 -1.8887,-0.11805 -3.74913,-0.1768 -5.61539,-0.51751 -3.00537,-0.70171 -6.01223,-1.41894 -8.99823,-2.20396 0.44819,0.006 0.99687,-0.26357 1.34456,0.0193 0.23355,0.19002 -0.0819,0.62069 -0.2563,0.86613 -0.59681,0.83995 -1.19998,1.7164 -2.02103,2.33897 -6.49173,4.92247 -13.40975,2.4789 -20.71025,1.26594 -3.34713,-1.1498 -6.76271,-2.11687 -10.04137,-3.4494 -9.84286,-4.00036 -19.96502,-9.7593 -28.71826,-15.78225 -5.89939,-4.05927 -8.74129,-6.61243 -14.16638,-11.114 -9.36412,-7.38135 -17.85352,-15.76856 -26.85949,-23.56358 -25.66548,-22.21449 10.90131,9.7984 -13.3756,-11.50367 -8.13791,-8.26345 -17.99304,-16.76641 -21.50324,-28.26467 -0.5045,-1.65257 -0.5832,-3.40616 -0.8748,-5.10925 -0.97044,-2.97257 1.98001,-5.3703 1.72495,-8.23074 -0.12782,-1.43349 -0.54306,-2.82678 -0.83623,-4.23578 -0.53002,-2.54725 -8.16833,-1.55109 -8.70433,-4.09709 -0.68567,-3.25698 5.71658,-10.05303 5.03933,-13.31178 -1.84092,-9.61828 -4.14256,-19.14457 -5.87232,-28.78491 -0.76879,-4.2846 -1.51699,-8.61919 -1.5441,-12.98096 1.54999,-0.60535 2.25169,-0.91965 4.80737,-0.11689 0.51396,0.16144 0.32067,1.03047 0.4289,1.55821 0.34721,1.6931 0.42034,3.38725 0.40525,5.10695 -0.44703,2.47355 -1.16062,3.18932 -4.21821,2.85239 -0.71318,-0.0786 -1.58261,-1.67233 -1.92514,-2.23252 -0.14947,-0.27887 3.79429,-2.39267 3.94376,-2.1138 l 0,0 c 0.16181,0.2395 0.42604,0.43129 0.49489,0.712 0.0138,0.0561 -0.11106,-0.0564 -0.1675,-0.0442 -0.88089,0.1901 -1.80977,0.26273 -2.62498,0.64683 -0.22427,0.10566 -0.11292,0.49136 -0.24109,0.70356 -0.0582,0.0963 0.0131,-0.2246 0.0196,-0.3369 -0.16311,-1.50458 -0.32163,-3.00959 -0.48007,-4.51466 -0.0588,-0.55839 -0.60055,-1.30616 -0.17727,-1.67506 3.34309,-2.91361 3.23681,-2.74547 4.67804,-1.40411 1.68196,4.01986 1.67517,8.66839 3.94669,12.38691 5.86006,9.59302 28.11761,17.83758 17.04788,27.67922 -28.38481,5.39879 39.59381,9.06748 -8.96936,24.98415 -0.0752,0.88948 -0.3555,1.74955 -0.53325,2.62433 -0.13285,0.46784 23.69207,0.21255 23.64307,0.69642 -0.0781,0.77162 -24.02773,2.25818 -24.02083,3.03372 1.08148,3.96422 20.93452,1.48257 23.1736,5.36784 4.63944,8.05036 -8.0568,17.89492 -1.23463,24.0214 2.82756,2.34159 11.08499,9.15189 13.69811,11.43499 8.86769,7.74777 17.0313,16.29436 26.36138,23.51398 2.18554,1.67632 4.32099,3.42004 6.55661,5.02896 5.65518,4.06989 9.96559,6.70595 16.07459,10.19295 5.60303,3.1982 13.09652,7.21208 18.97659,9.88964 2.94583,1.34142 5.98325,2.47183 8.97488,3.70775 3.67544,1.33334 6.84483,2.92169 10.8324,2.89604 2.35382,-0.0151 3.31436,-1.07321 4.88909,-2.509 2.95416,-2.69351 0.85756,-1.77501 4.72182,-2.52644 1.66764,0.22942 3.26651,0.5686 4.88459,1.04447 0.99373,0.29225 1.95404,0.69666 2.95739,0.95395 0.35132,0.0901 0.71482,0.12324 1.07224,0.18486 1.63232,0.26707 3.2579,0.53835 4.91945,0.4621 -0.45895,0.10868 -0.0406,-0.0145 0.28838,0.10394 0.21937,0.079 0.0947,0.31143 0.17204,0.267 0.1401,-0.0804 0.24477,-0.21091 0.36715,-0.31637 2.27653,-1.3716 3.72378,0.0461 4.3975,1.95652 0.0288,0.28444 -0.16408,-0.10464 -0.29093,-0.11251 -0.55551,-0.0345 -1.15965,-0.23345 -1.66971,-0.0107 -0.79995,0.34937 -0.84391,0.74418 -0.93778,1.28582 0.0351,-3.07797 -1.07843,-6.12923 0.40251,-9.0921 1.04788,-0.48851 2.04394,-1.1087 3.14366,-1.46553 0.37408,-0.12138 0.78579,0.0365 1.17817,0.0632 0.52445,0.0357 1.04803,0.0831 1.57211,0.1239 2.30476,0.1793 4.61067,0.35616 6.92266,0.41199 5.90523,0.33221 11.80478,0.83137 17.7248,0.68031 0.75931,0.0154 1.51893,0.0196 2.27792,0.0463 0.43918,0.0155 1.04712,-0.26736 1.31592,0.0803 4.00126,5.17523 1.86651,4.06225 -1.39439,4.67908 -0.4398,0.0631 -0.89587,0.32343 -1.3194,0.18919 -0.23203,-0.0735 -0.14806,-0.46499 -0.24923,-0.68638 -0.40494,-0.88614 -0.72388,-1.82527 -1.26788,-2.63353 -0.11134,-0.16543 -0.78162,-0.0825 -0.58592,-0.1208 0.56791,-0.11118 1.15689,-0.0489 1.73298,-0.10376 0.83682,-0.0797 1.66929,-0.19996 2.50394,-0.29994 1.92801,-0.45375 3.05152,-0.58657 4.81253,-1.49793 3.26251,-1.68843 5.36221,-4.79607 8.12937,-7.10245 2.03484,-1.57114 2.91395,-2.37106 5.20119,-3.6302 3.5011,-1.92737 7.42981,-2.926 10.93575,-4.84734 1.88713,-1.11235 2.85783,-1.63732 4.66762,-2.89779 3.13139,-2.18091 5.89381,-4.81612 8.68065,-7.40857 1.37017,-1.09864 1.5883,-1.32977 2.96968,-2.24554 0.28638,-0.18986 0.56612,-0.39887 0.88281,-0.53218 0.71383,-0.30047 -0.28938,1.54007 0.62511,-0.79011 1.40988,-3.27673 3.02127,-6.39859 5.0788,-9.32583 1.40303,-2.01498 2.8269,-3.95045 5.14467,-4.9416 2.2947,-2.02737 3.03201,-5.12439 3.95717,-7.92747 1.22761,-3.76235 2.56263,-7.49232 3.54888,-11.32883 1.0511,-4.1829 1.99167,-8.38841 1.70805,-12.74282 0.022,-5.47774 -0.0632,-10.95481 -0.0712,-16.43256 -0.0453,-5.02743 -0.26104,-10.05391 -0.12774,-15.08102 0.23854,-4.96949 0.8244,-9.90881 1.06932,-14.87477 -0.0628,-0.88151 -0.0263,-1.44173 -0.34209,-2.25668 -0.69965,-1.80533 -2.31624,-3.12425 -3.27632,-4.76908 -2.473,-3.68315 -4.89393,-7.42545 -7.01547,-11.32179 2.70222,-16.55918 17.49091,-10.56581 17.61711,-10.27009 z"
       inkscape:connector-curvature="0"
       sodipodi:nodetypes="ccsccccccsccsccscscscscscccccccccscsccccccccscsscscscssscscsscccccccccccscscccccscscsssccscscccccccccccscccccsccsscccscscsccccccccccccccccc" />
    <path
       style="opacity:1;fill:#241c1c;fill-opacity:1;stroke:#833621;stroke-width:0;stroke-linejoin:round;stroke-miterlimit:4;stroke-dasharray:none;stroke-dashoffset:0;stroke-opacity:1"
       id="path7079"
       d="m 421.13882,421.23106 c 48.12939,-10.77934 38.96384,12.27143 25.0553,30.29414 0.49944,6.06344 -6.27253,11.98087 -6.14427,17.81448 0.0541,2.45913 -12.51767,4.83734 -13.31791,7.33323 -0.18324,0.5715 7.30092,4.63689 7.0623,5.18757 -2.32406,2.97142 -11.41866,2.94855 -12.27808,6.58634 -0.71549,2.17693 -0.2794,4.536 -0.93005,6.71791 -0.15725,0.52733 -0.41121,1.02084 -0.61682,1.53125 -0.25251,0.3936 -0.47228,0.81022 -0.75752,1.18078 -1.26914,1.64876 -2.24323,1.73487 -4.34356,1.69669 -0.27225,-0.005 -1.06455,-0.16355 -0.79382,-0.19275 0.49476,-0.0534 0.99215,0.0786 1.48822,0.11786 0.006,0.1082 0.0445,0.21914 0.0194,0.32459 -0.36616,1.53849 -0.87241,3.0403 -1.32448,4.55577 -1.20027,4.02369 -2.58846,7.98206 -3.92932,11.96024 -2.2492,5.78855 -3.52262,11.91774 -5.89836,17.65897 -1.7864,4.31702 -2.28085,4.82146 -4.65933,8.82309 -3.94569,5.91701 -9.20382,10.53361 -15.42284,13.93498 -2.64761,1.44805 -5.35764,2.55472 -8.117,3.75011 -6.21314,2.35385 -11.59111,6.23734 -17.03265,9.94972 -6.02989,3.91028 -12.46542,7.67072 -19.62005,9.01584 0.41945,-1.38772 0.35267,-1.02157 -0.65012,-3.92174 -0.0659,-0.19047 -0.74594,-0.26554 -0.5881,-0.14024 1.05187,0.83507 2.90167,1.01977 3.30831,2.29978 1.08058,3.40137 -4.91791,6.89315 -6.19281,7.94128 -2.73973,1.4744 -5.39675,3.11406 -8.21918,4.42321 -15.95388,7.39999 -33.19994,11.38104 -50.48079,14.16385 -3.95204,0.63642 -7.92864,1.10971 -11.89296,1.66457 -10.3582,1.13064 -20.90829,2.57885 -31.34262,1.36633 -2.90749,-0.33787 -4.8343,-1.08208 -7.56452,-1.94953 -0.87255,-0.47143 -1.81518,-0.83151 -2.61765,-1.41428 -1.84223,-1.33786 -3.09482,-3.45108 -2.32554,-5.76846 0.369,-1.11158 1.31916,-1.83351 2.12982,-2.57667 0.22582,-0.2611 0.50009,-0.48712 0.67744,-0.78328 1.36205,-2.2745 0.65887,-8.5082 0.50099,-11.03494 -0.16776,-1.14029 0.0409,-2.96856 -1.34333,-3.62561 -0.61194,-0.29047 -1.33734,-0.21662 -2.00526,-0.32942 -1.50757,-0.25461 -3.01739,-0.49679 -4.52118,-0.77281 -8.23964,-1.51241 -7.54629,-1.45681 -16.56827,-3.46795 -9.07736,-2.39681 -18.18272,-4.88342 -26.89645,-8.42551 -1.39346,-0.56644 -5.97595,-2.57766 -7.58333,-3.94115 -0.59397,-0.50384 -0.96589,-1.22216 -1.44883,-1.83324 -0.73463,-1.21041 -0.46461,-2.7251 -0.97756,-3.99727 -0.96508,-2.3935 -3.41371,-4.26134 -5.09815,-6.0539 -1.13329,-1.20602 -2.21688,-2.4578 -3.32531,-3.6867 -5.55564,-6.3498 -9.17676,-14.21663 -15.32218,-20.05131 -2.38742,-2.21555 -5.22388,-3.89215 -7.70224,-5.98681 -0.73551,-0.62164 -1.41575,-1.30588 -2.12363,-1.95882 -2.89318,-3.0911 -7.6303,-6.62975 -9.07329,-10.74028 -0.25454,-0.72508 -0.31142,-1.50505 -0.46713,-2.25757 -0.0532,-1.9033 0.43756,-3.5437 1.56646,-5.06708 0.40854,-0.55129 1.17554,-1.01073 1.29993,-1.72028 0.0149,-2.58266 -0.33175,-5.14845 -0.61358,-7.71049 -0.2768,-2.13015 -0.12531,-4.27385 -0.0372,-6.40985 0.24453,-2.74669 0.0784,-2.54005 4.64775,-0.9615 0.0463,0.016 -4.8e-4,1.34028 -0.002,1.389 -0.004,0.31709 -4.48845,0.257 -4.4842,-0.0601 l 0,0 c 8e-5,-0.0277 -0.003,-1.28225 0.0255,-1.28889 4.65711,-1.08971 4.48739,-1.4597 4.39506,1.14513 -0.13659,1.90942 -0.0968,3.79446 0.18367,5.69467 0.41676,3.21978 1.0731,6.49917 0.21458,9.70778 -0.20976,0.45602 -0.38141,0.93158 -0.62927,1.36807 -0.61683,1.08624 -1.84023,1.63956 -1.76417,3.07255 0.0682,0.35625 0.0709,0.73153 0.20455,1.06873 0.49884,1.25894 1.26196,1.89637 2.21899,2.87774 2.11796,2.17182 4.35788,4.2289 6.32839,6.54228 0.55476,0.5749 1.07798,1.182 1.66429,1.72468 2.43776,2.25635 5.3391,4.00206 7.94102,6.05104 0.7243,0.57646 1.48663,1.10814 2.17291,1.72939 5.80176,5.25206 9.55498,12.2803 14.33464,18.38095 0.98294,1.26319 1.95856,2.53211 2.94884,3.78955 1.81151,2.30022 3.06769,3.54169 4.35007,6.11623 0.55573,1.1157 1.22617,2.93447 1.16792,4.30296 -0.004,0.0955 -0.18923,0.0269 -0.28384,0.0403 1.71707,0.77211 7.30374,1.99115 8.54351,2.32052 9.01523,2.39506 17.99083,4.94033 26.88545,7.75376 1.77657,0.55955 13.29179,4.16774 15.86321,5.03928 2.67483,0.90659 6.25473,1.92356 8.41497,4.01886 1.97369,1.91436 1.90244,3.52301 2.37923,5.99636 0.13641,4.61037 0.60724,10.065 -2.17594,14.07768 -0.31007,0.44704 -0.73975,0.79796 -1.10962,1.19693 -0.9646,0.68077 -0.75372,0.66517 -1.32406,-0.10514 -0.0501,-0.0677 0.0412,0.17525 0.10548,0.22972 1.03,0.87263 1.55579,0.87893 2.99558,1.42307 0.99632,0.22916 1.97755,0.53835 2.98894,0.68749 2.36538,0.3488 4.73471,0.35175 7.11307,0.18953 7.93341,-0.54113 15.75492,-1.98087 23.55151,-3.49022 12.55901,-2.28924 25.20609,-4.3375 37.62165,-7.33969 10.79876,-2.61123 21.4365,-5.92659 31.91491,-9.60326 1.47024,-0.57507 2.89454,-1.28528 4.4107,-1.72522 0.72621,-0.21072 3.97113,0.51388 4.02934,0.57669 0.4645,0.50113 -1.58215,0.6214 -2.04635,0.12 -2.52397,-2.72618 -1.8695,-3.03364 -0.63338,-4.36167 1.93622,-1.16543 4.0482,-1.98677 6.0885,-2.9539 4.16234,-1.97302 3.74629,-1.78815 7.97658,-4.11966 1.39865,-0.77085 2.79048,-1.55402 4.18571,-2.33104 5.88341,-3.40683 11.48277,-7.31689 17.59419,-10.31296 8.50269,-4.11098 15.73555,-7.52233 21.32892,-15.58388 2.18293,-3.5973 2.6119,-4.00893 4.25888,-7.92155 2.39578,-5.69149 3.77957,-11.75835 5.99621,-17.51665 1.39789,-3.981 2.82887,-7.95109 4.39614,-11.86954 0.52947,-1.32376 1.63993,-4.10808 2.50779,-5.4026 0.39788,-0.59349 0.94647,-1.07068 1.4197,-1.60601 0.93358,-0.17762 1.85975,-0.39997 2.80073,-0.53285 0.14128,-0.0199 0.55229,0.0224 0.42088,0.0779 -0.39062,0.16515 -0.8522,0.10591 -1.24334,0.26981 -0.33816,0.1417 -0.11977,0.67409 0.58805,-0.56682 1.20182,-2.32798 0.51581,-4.96785 1.02531,-7.48348 0.77124,-4.05746 2.1173,-8.20637 5.23452,-11.10159 0.54407,-0.0795 0.20403,0.0265 0.0135,-1.17591 -0.13261,-0.83678 -0.29164,-1.6692 -0.42767,-2.50544 -0.99716,-6.13005 -1.81142,-12.28834 -2.39483,-18.47259 -0.90979,-10.72244 -1.39187,-21.47062 -2.45062,-32.17985 -0.0623,-0.32364 4.51455,-1.20501 4.57687,-0.88137 z"
       inkscape:connector-curvature="0"
       sodipodi:nodetypes="cccsccscsccccscscscccccscsscscsscscssscsscssccscscscccccccccccsccscscscssccscsscsccccsscscscscsscccscsscccsccccscccc" />
    <path
       style="opacity:0.98699999;fill:#241c1c;fill-opacity:1;stroke:#833621;stroke-width:0;stroke-linejoin:round;stroke-miterlimit:4;stroke-dasharray:none;stroke-dashoffset:0;stroke-opacity:1"
       id="path7081"
       d="m 487.1897,449.91475 c -0.75144,4.95135 15.539,8.13434 14.21468,12.93603 -1.32698,4.81133 -4.77605,8.78995 -5.59066,13.92978 -1.09562,9.72025 -8.01105,18.86499 -10.31897,28.40679 -1.65396,6.83811 -10.87199,6.59217 -13.45838,13.05443 -3.79917,8.34171 -9.42513,15.62193 -13.97583,23.53199 -2.24722,3.90613 -2.61528,4.86644 -4.45116,8.74598 -0.37895,0.98074 -0.77871,1.9537 -1.13685,2.94224 -0.36031,0.9945 -0.55772,2.0484 -0.98043,3.01803 -0.0315,0.0724 -0.1053,0.16602 -0.18277,0.15071 -1.45282,-0.28709 -2.97438,-0.42025 -4.31922,-1.04034 -0.27112,-0.12501 0.0978,-0.58904 0.14667,-0.88356 0.43692,-1.37281 0.77187,-3.14341 2.49326,1.96812 0.14582,0.43299 -0.67834,0.61535 -1.05028,0.88069 -5.26252,3.75433 -10.83569,6.9705 -16.42794,10.19802 -8.5968,4.53409 -17.40078,8.68444 -26.3842,12.39549 -10.25562,4.23659 1.57353,-0.76557 -6.08906,2.48915 -2.88563,1.20992 -5.01395,3.58284 -7.70638,5.10812 -2.65891,1.50629 -4.69156,2.16521 -7.58262,3.29414 -6.96242,2.33884 -13.58042,5.56569 -20.42374,8.20127 -4.86429,1.87339 -5.99855,2.08496 -10.99206,3.52835 -7.22528,1.75706 -14.6306,2.1653 -22.03409,1.77717 -2.83955,-0.14886 -5.98486,-0.57547 -8.81359,-0.91807 -3.71568,-0.53742 -7.51047,-0.69081 -11.16358,-1.62387 -1.0575,-0.27011 -3.12058,-0.91664 -4.06489,-1.75955 -0.40147,-0.35837 -0.63195,-0.87125 -0.94792,-1.30688 -0.39362,-4.70103 6.03898,-5.14562 3.59455,0.78753 -0.26771,0.64979 -1.27518,0.61089 -1.95477,0.7899 -2.61057,0.68765 -4.85231,0.52641 -7.60237,0.59842 -3.70833,-0.0273 -7.4083,-0.578 -10.96454,-1.63459 -0.98947,-0.29398 -2.90857,-0.99848 -3.88293,-1.64913 -0.30768,-0.20546 -0.53758,-0.50846 -0.80636,-0.76268 0.0582,-1.12844 0.11637,-2.25688 0.17455,-3.38532 0.21911,-0.21499 3.25946,2.88371 3.04035,3.09869 l 0,0 c -0.0812,-1.02093 -0.16232,-2.04187 -0.24348,-3.0628 0.47352,-0.10695 3.66764,0.68968 3.78731,0.71269 3.33406,0.64102 6.69205,1.20173 10.09589,1.27621 5.93464,0.64921 -1.79348,-0.14629 4.60483,0.33881 0.3568,0.0271 0.89517,-0.15303 1.06086,0.16412 0.55477,1.06189 0.14604,2.52258 0.84946,3.49242 0.72319,0.99708 5.05373,-1.73973 2.04149,-3.08008 -0.10236,-0.14253 -0.47825,-0.38891 -0.30709,-0.42759 0.37219,-0.0841 0.74329,0.17414 1.11836,0.24428 0.75307,0.14082 1.50738,0.2767 2.26531,0.38844 1.69283,0.24958 5.45911,0.69709 7.05631,0.86697 1.30888,0.13921 2.62023,0.25415 3.93034,0.38123 8.899,0.76325 17.67654,1.25938 26.44158,-1.01867 4.61099,-1.28582 5.89737,-1.52403 10.37541,-3.25701 1.79204,-0.69351 3.53242,-1.51402 5.30842,-2.24761 5.1485,-2.12662 10.34036,-4.18102 15.70542,-5.70499 1.89649,-0.53485 5.07152,-1.33443 6.99947,-2.1854 2.94096,-1.2981 5.20307,-3.7063 7.96986,-5.29737 9.99693,-6.24189 20.641,-11.41122 31.23329,-16.54271 4.52327,-2.19473 9.00884,-4.46941 13.57474,-6.57401 1.42421,-0.65647 2.86713,-1.27334 4.32303,-1.85617 0.91655,-0.36692 1.83993,-1.25711 2.79084,-0.99167 3.69201,1.03061 3.4536,1.48833 3.07437,3.0616 -0.47759,2.02756 -0.0402,1.0741 -4.64167,0.92549 -0.15517,-0.005 -0.13249,-0.28793 -0.14467,-0.44269 -0.0376,-0.47769 -0.0431,-0.95998 -0.003,-1.4375 0.0685,-0.82385 0.16733,-1.64733 0.32736,-2.45839 0.23731,-1.20271 0.57539,-2.38334 0.86308,-3.575 1.61702,-4.22822 1.95652,-5.45967 4.16299,-9.65276 4.10489,-7.80079 9.64385,-14.77261 13.28995,-22.82925 2.31013,-5.84267 3.08467,-7.21946 4.58285,-13.39606 2.30687,-9.5107 2.80401,-19.35261 4.57107,-28.95886 0.41738,-1.98015 0.77701,-3.97336 1.25213,-5.94045 1.54255,-6.38648 3.89917,-12.56755 6.8537,-18.42927 0.0457,-0.31622 4.51782,0.33078 4.47207,0.647 z"
       inkscape:connector-curvature="0"
       sodipodi:nodetypes="cscscscsccscsscscscscscsccsscssccccccccssccsssccsscsccsssccscscscscsccc" />
    <path
       style="opacity:0.95400002;fill:#241c1c;fill-opacity:1;stroke:#833621;stroke-width:0;stroke-linejoin:round;stroke-miterlimit:4;stroke-dasharray:none;stroke-dashoffset:28.90639877;stroke-opacity:1"
       id="path7083"
       d="m 464.48768,467.66465 c -3.73237,10.07428 -8.27713,19.81508 -12.7867,29.55733 -2.53586,4.87715 21.00477,-29.84807 17.92543,-25.25952 -4.23933,4.6902 -32.20464,50.43709 -35.32702,55.89927 -0.73261,1.34696 -1.48107,2.68543 -2.19785,4.0409 -2.17222,4.10779 -3.97335,9.01512 -6.8288,12.67296 -0.5259,0.67368 -1.1639,1.25179 -1.74585,1.87768 -1.32906,0.93356 -3.63971,2.58662 -5.41376,1.30398 -2.15345,-1.55696 -0.82742,-3.14427 0.54087,-4.32569 0.3681,-0.31782 0.91745,-0.32298 1.37618,-0.48447 1.03294,0.76722 2.94778,1.02387 3.09882,2.30168 0.15349,1.29866 -1.44947,2.22858 -2.46615,3.05104 -1.1269,0.91163 -7.46289,3.47682 -8.3049,3.81811 -6.92603,2.70081 -3.5099,1.3299 -10.24993,4.10888 -3.63855,1.5315 -7.0472,3.42341 -10.15494,5.8507 -2.48761,1.94293 -2.2023,1.97269 -4.87203,3.78922 -0.95897,0.65251 -1.96352,1.23539 -2.94528,1.85308 -1.04726,0.59083 -2.08869,1.1921 -3.14178,1.77248 -3.17848,1.75177 -2.74521,1.38669 -5.74873,3.22675 -2.23819,1.37119 -4.33513,2.91176 -6.45496,4.45427 -4.92843,3.60259 -10.81339,4.78966 -16.73017,5.63254 -3.00437,0.44017 -6.04,0.465 -9.0647,0.62002 -0.48357,0.0248 -0.96615,0.0663 -1.4488,0.10515 -0.21776,0.0175 -0.44005,0.11572 -0.65226,0.0638 -0.0738,-0.018 0.0795,-0.12944 0.11929,-0.19415 0.52592,-2.783 0.93091,-1.74977 -0.18016,-3.32443 0.28809,0.11809 -1.38199,4.1923 -1.67009,4.07421 l 0,0 c -2.22862,-1.63524 -1.52762,-0.47565 -1.25661,-3.86593 0.26122,-0.23884 0.49037,-0.51835 0.78364,-0.71652 2.95524,-1.99686 8.30677,-1.39787 11.669,-2.06911 5.12773,-0.51657 10.52538,-0.87986 14.84605,-3.98145 0.53936,-0.44005 3.6431,-2.97844 4.03387,-3.26936 3.58405,-2.66829 7.52559,-4.79644 11.50274,-6.80846 2.2915,-1.27143 2.95042,-1.50107 4.95481,-3.12354 2.22908,-1.80435 2.68677,-2.65928 5.03292,-4.50527 3.30134,-2.59753 4.22721,-2.8694 8.07763,-4.95671 1.72804,-0.74204 3.43239,-1.5419 5.18413,-2.22612 3.21083,-1.25412 6.95341,-2.42792 10.27221,-3.40699 1.17311,-0.34608 2.31625,-1.06285 3.53642,-0.97838 1.67323,0.11583 0.55313,5.56005 4.03883,3.00102 -1.76069,0.0282 -0.0614,0.26521 -0.47073,-1.54243 -0.48598,-2.14619 -1.14638,-1.82404 -2.78863,-1.77395 -0.0525,0.002 0.0958,0.0429 0.14378,0.0643 l 0.73328,-0.53505 c 0.38452,-0.45517 0.81654,-0.87413 1.15357,-1.36551 2.6551,-3.87111 3.94499,-8.5468 6.0516,-12.7064 0.72094,-1.42354 1.52573,-2.80305 2.2886,-4.20457 3.37097,-5.51869 6.87698,-11.06121 11.87906,-15.27357 0.89142,-1.1994 0.91438,-2.36334 1.30174,-3.81882 0.99729,-3.74719 2.43706,-7.36291 3.7512,-11.00371 4.0206,-10.17833 8.40148,-20.29158 14.23746,-29.58014 0.1528,-0.30885 4.5205,1.852 4.3677,2.16084 z"
       inkscape:connector-curvature="0"
       sodipodi:nodetypes="ccccsscssccsccsscsscccccccccccccscsscssscscccssccscccc" />
    <path
       style="opacity:0.96199999;fill:#22280b;fill-opacity:1;stroke:#833621;stroke-width:0;stroke-linejoin:round;stroke-miterlimit:4;stroke-dasharray:none;stroke-dashoffset:0;stroke-opacity:1"
       id="path7085"
       d="m 115.94697,415.21395 c -0.99223,8.34904 -2.44091,16.66076 -4.91768,24.70315 -0.53676,1.38221 -1.55757,5.19009 -3.52024,5.42257 -0.87101,0.10317 -1.73916,-0.72588 -2.58473,-0.49283 -0.80692,0.22239 1.63648,0.35244 2.45472,0.52866 -2.05357,3.81286 -3.2625,7.98031 -4.49656,12.10708 -1.10929,3.34324 -1.7797,6.79869 -3.070285,10.08032 -1.36667,3.35318 -3.238647,6.45912 -6.058764,8.76324 -1.132857,0.7052 -2.126939,1.18285 -3.597611,0.75423 -0.458068,-0.1335 -0.717233,-0.62942 -1.07585,-0.94413 -0.173251,-0.25219 3.393158,-2.70232 3.566408,-2.45014 l 0,0 c -0.262533,-0.19874 -0.464387,-0.53333 -0.787601,-0.59623 -1.330922,-0.25897 -2.186255,0.50492 -1.319195,-0.0249 0.819167,-0.55055 1.368962,-1.57397 1.919947,-2.3654 1.056563,-1.51765 1.940473,-3.11555 2.718714,-4.79491 1.374253,-3.06934 1.941908,-6.3644 2.811539,-9.59767 1.239974,-4.81811 2.455478,-9.81226 5.668238,-13.75022 1.33367,-0.38244 2.80257,-0.44828 4.00102,-1.14733 0.54603,-0.31849 -1.28482,-0.24772 -1.89465,-0.0813 -0.35399,0.0966 -0.48747,0.54963 -0.75224,0.80366 -0.0593,0.0569 0.10789,-0.12967 0.13171,-0.20829 0.29543,-0.97541 0.42669,-2.06672 0.5894,-3.05343 1.23092,-8.25075 2.80652,-16.49051 5.52181,-24.39632 0.0523,-0.33176 4.74424,0.40844 4.6919,0.74021 z"
       inkscape:connector-curvature="0" />
    <path
       style="opacity:0.96199999;fill:#22280b;fill-opacity:1;stroke:#833621;stroke-width:0;stroke-linejoin:round;stroke-miterlimit:4;stroke-dasharray:none;stroke-dashoffset:0;stroke-opacity:1"
       id="path7087"
       d="m 123.77179,412.93427 c 4.73201,5.84211 8.34781,12.50667 13.10202,18.3297 0.9007,1.1032 1.88529,2.13515 2.82794,3.20272 2.65077,2.68484 5.63437,4.98708 8.71518,7.14895 1.79193,1.25743 3.47896,2.33618 5.48767,3.1823 2.50191,0.85235 4.71142,2.3757 6.68601,4.10809 2.58708,1.17749 0.88171,5.33589 -2.30935,4.23944 -0.27847,-0.13542 1.63675,-4.07358 1.91522,-3.93815 l 0,0 c 1.49171,0.23729 -0.14292,-0.0803 -2.14328,3.15214 -0.14365,0.23212 0.71157,0.66888 -0.68561,-0.18013 -1.9154,-1.28522 -3.63378,-2.74841 -5.98771,-3.15211 -1.56161,-0.60958 -2.53926,-0.94642 -4.05843,-1.74061 -4.59795,-2.40371 -8.64422,-5.70662 -12.36553,-9.29306 -1.05732,-1.14666 -2.16074,-2.25246 -3.17195,-3.43997 -4.98256,-5.8512 -8.91742,-12.56617 -12.2662,-19.45754 -0.15286,-0.3008 4.10116,-2.46258 4.25402,-2.16177 z"
       inkscape:connector-curvature="0" />
  </g>
</svg>
