<?xml version="1.0" encoding="UTF-8" standalone="no"?>
<!-- Created with Inkscape (http://www.inkscape.org/) -->

<svg
   xmlns:dc="http://purl.org/dc/elements/1.1/"
   xmlns:cc="http://creativecommons.org/ns#"
   xmlns:rdf="http://www.w3.org/1999/02/22-rdf-syntax-ns#"
   xmlns:svg="http://www.w3.org/2000/svg"
   xmlns="http://www.w3.org/2000/svg"
   xmlns:sodipodi="http://sodipodi.sourceforge.net/DTD/sodipodi-0.dtd"
   xmlns:inkscape="http://www.inkscape.org/namespaces/inkscape"
   width="210mm"
   height="297mm"
   viewBox="0 0 744.09448819 1052.3622047"
   id="svg2"
   version="1.1"
   inkscape:version="0.91 r13725"
   sodipodi:docname="drawing.svg">
  <defs
     id="defs4" />
  <sodipodi:namedview
     id="base"
     pagecolor="#ffffff"
     bordercolor="#666666"
     borderopacity="1.0"
     inkscape:pageopacity="0.0"
     inkscape:pageshadow="2"
     inkscape:zoom="0.70710678"
     inkscape:cx="255.17157"
     inkscape:cy="686.48947"
     inkscape:document-units="px"
     inkscape:current-layer="layer1"
     showgrid="false"
     inkscape:window-width="1366"
     inkscape:window-height="747"
     inkscape:window-x="0"
     inkscape:window-y="21"
     inkscape:window-maximized="1" />
  <metadata
     id="metadata7">
    <rdf:RDF>
      <cc:Work
         rdf:about="">
        <dc:format>image/svg+xml</dc:format>
        <dc:type
           rdf:resource="http://purl.org/dc/dcmitype/StillImage" />
        <dc:title></dc:title>
      </cc:Work>
    </rdf:RDF>
  </metadata>
  <g
     inkscape:label="Layer 1"
     inkscape:groupmode="layer"
     id="layer1">
    <path
       style="fill:#241c1c;fill-opacity:0.1254902"
       id="path3342"
       d="m 394.18778,375.91692 c 3.02494,3.99884 6.55979,7.56272 10.32595,10.90415 2.7538,3.10167 6.19956,5.50905 9.03659,8.51668 2.71929,5.42797 5.90424,10.58974 9.53961,15.48693 1.84748,2.44603 4.08738,3.62278 6.92906,4.64677 1.80241,0.31291 5.6945,2.5001 7.36236,1.48482 6.41541,-5.56392 0.0652,1.4e-4 -20.34076,11.05617 -0.42894,0.2324 0.79817,-0.56923 1.11814,-0.9302 0.85964,-0.96976 0.73557,-1.33885 1.09697,-2.71958 0.13934,-8.52389 0.53991,-16.97861 1.76781,-25.4316 1.24547,-5.62205 2.82737,-11.11848 3.49928,-16.84351 0.17953,-0.69997 0.27421,-6.61953 0.73403,-6.89105 21.81405,-12.88105 16.67473,-18.16517 22.98196,-10.59108 1.10076,1.59459 2.09492,3.25507 3.06016,4.9288 0.3688,0.81936 0.54215,1.69656 0.68221,2.57403 0.11234,0.4275 0.22468,0.855 0.33703,1.2825 0,0 -23.17749,8.65919 -23.17749,8.65919 l 0,0 c 0.24459,0.34983 0.48918,0.69968 0.73378,1.04952 0.0498,-0.56393 0.0198,-1.12892 -0.10695,-1.68441 -0.71763,-1.48784 -1.4925,-2.98415 -2.59131,-4.24543 0.60785,8.07678 -0.0612,0.60061 20.75604,-11.48406 0.24236,-0.1407 -0.64241,0.0357 -0.80445,0.25965 -1.10467,1.5269 -0.13755,4.04748 -0.76707,5.68859 -0.70912,5.82398 -1.81648,11.49178 -3.75624,17.06736 -1.4745,8.38044 -2.21589,16.75733 -1.3484,25.25475 -0.0412,0.46229 -0.2346,2.99772 -0.39719,3.63872 -0.11611,0.45778 -0.45217,1.06445 -0.90295,1.32345 -21.61942,12.42155 -13.34723,12.69199 -22.47819,12.24364 -2.65729,-0.64989 -5.22607,-1.58421 -7.79855,-2.49169 -3.49113,-1.37174 -5.47124,-2.84648 -7.63575,-5.88499 -3.35863,-4.94974 -6.31849,-10.12522 -9.59333,-15.11885 -2.65651,-3.01525 -5.89432,-5.52658 -8.63483,-8.47176 -3.8488,-3.45738 -7.38658,-7.17629 -10.781,-11.05357 0,0 21.15348,-12.22394 21.15348,-12.22394 z"
       inkscape:connector-curvature="0" />
    <rect
       style="fill:#cccccc;fill-opacity:1;stroke:#000000;stroke-width:9.21972942;stroke-miterlimit:4;stroke-dasharray:9.21972954, 18.43945908;stroke-dashoffset:112.99996948;stroke-opacity:1"
       id="rect4172"
       width="230.00163"
       height="205.35873"
       x="332.97925"
       y="250.41661" />
    <rect
       style="fill:#999999;fill-opacity:1;stroke:#000000;stroke-width:5.15081024;stroke-miterlimit:4;stroke-dasharray:5.15080996, 10.30161992;stroke-dashoffset:46.56755447;stroke-opacity:1"
       id="rect4190"
       width="493.85709"
       height="231.28284"
       x="56.127037"
       y="425.22733" />
    <path
       style="fill:#000000;fill-opacity:1;stroke:#000000;stroke-width:0.48954317;stroke-miterlimit:4;stroke-dasharray:0.48954316, 0.97908632;stroke-dashoffset:6;stroke-opacity:1"
       id="path4192"
       d="m 105.27308,181.4982 c 1.95562,3.41226 2.92897,7.25346 4.88383,10.67102 1.26566,2.21265 2.68044,4.35287 4.24253,6.38071 3.13991,4.07611 10.19485,11.43235 13.52918,15.00336 14.62352,16.27644 26.83765,34.34882 39.4838,52.05297 3.09302,4.37411 6.33205,8.68042 8.59811,13.53392 2.13073,4.56364 2.38139,6.7041 4.97139,11.23418 1.15911,2.02738 2.6243,3.87647 3.93644,5.8147 1.75281,1.82724 3.3415,3.81563 5.25842,5.48171 8.82087,7.66662 21.09707,12.74765 31.91089,17.27257 6.22511,2.06776 9.60802,4.4166 12.48661,10.03897 1.72108,5.55416 2.60498,11.30692 4.70518,16.75935 1.65941,4.30809 2.23412,4.9579 4.51512,8.91252 1.00258,1.25963 1.9383,2.57175 3.00774,3.77888 3.30105,3.72605 4.84206,4.63921 8.47008,8.3688 5.94544,6.11187 11.32574,12.75624 16.88633,19.19037 6.63565,7.61786 12.91727,15.51643 19.69875,23.0147 2.95664,3.27328 4.94922,7.18908 7.57222,10.69074 2.45299,3.2747 2.64131,3.28174 5.49448,6.2188 4.39573,3.99361 9.21276,7.61338 14.53036,10.38709 0.42315,0.17214 0.91498,0.23435 1.26944,0.51641 1.81298,1.44266 1.77048,4.01024 1.19406,5.95823 -3.14308,5.6236 -11.37067,9.37513 -16.82922,10.33177 -5.45867,-1.53489 9.62499,-5.85525 14.53297,-8.62879 0.0435,-0.0245 -0.0267,0.0987 -0.0129,0.14543 0.0475,0.16013 0.20589,0.35761 0.30065,0.48996 0.30037,0.35945 0.65903,0.65226 1.05174,0.91131 1.33008,0.91219 2.84288,1.50941 4.3169,2.17184 2.97964,1.3242 5.0956,3.71848 6.85737,6.32185 2.67582,3.63742 5.09065,7.4443 7.42352,11.29329 2.62869,4.59856 5.78708,8.88542 8.63235,13.35526 5.02939,8.72523 14.0787,13.44469 22.23619,18.97 2.126,1.44001 4.16081,3.00193 6.24122,4.5029 1.97944,2.17022 4.09805,4.22883 5.93832,6.51066 3.26091,4.04334 8.52756,12.13345 11.3753,16.3976 4.67217,6.996 9.35999,13.85353 14.54219,20.50444 3.05946,3.33025 5.70465,7.78218 10.18683,9.59797 1.7679,0.71619 8.62175,2.044 10.28629,2.50468 1.78852,0.49499 3.52315,1.15659 5.28472,1.73489 1.9086,1.38744 3.92414,2.64711 5.72578,4.16235 1.13615,0.95553 13.70068,12.92824 14.3448,13.54378 6.3178,6.03747 12.57501,12.12858 18.95288,18.10686 3.32456,3.20161 6.69112,6.36176 10.03399,9.54483 1.50953,1.43737 3.01032,2.80196 4.11963,4.57778 0.71886,1.15078 1.23037,2.41129 1.84556,3.61693 3.18439,7.79884 6.08418,15.72381 10.6613,22.87928 0.71633,1.10019 1.4564,2.18627 2.149,3.30058 3.29549,5.30205 2.96428,5.31244 6.91556,10.926 4.53499,6.44288 9.67067,12.42214 14.83499,18.39174 7.68717,7.96869 14.50047,16.60513 20.44226,25.8509 2.19337,3.53904 4.13322,7.22807 6.57596,10.61619 1.9461,2.80183 4.99066,4.52924 7.85278,6.34393 3.37998,1.92997 6.8684,3.79791 10.56057,5.12114 0.94175,0.60793 5.54886,4.11437 5.76902,5.0312 0.1365,0.56841 -0.0787,1.16457 -0.11795,1.74687 -5.60623,2.70091 -11.03102,5.78704 -16.81868,8.10275 -0.79828,0.3194 -1.71517,-0.20654 -2.5669,-0.34638 -4.26555,-0.70035 -8.34806,-1.93578 -12.41409,-3.33574 -11.19161,-3.6704 -22.63045,-6.63967 -34.04596,-9.58884 -4.1941,-1.13954 -8.39307,-2.26256 -12.60492,-3.33934 -1.73669,-0.44399 -3.26414,-0.81365 -5.04821,-0.85968 4.97527,-2.75456 9.95054,-5.50911 14.92582,-8.26367 0.11103,-0.0951 0.18736,-0.31173 0.3331,-0.28517 0.72277,0.13166 1.36938,0.52513 2.07553,0.72395 1.32707,0.37361 2.66987,0.69559 4.01773,0.99153 5.21528,1.14508 6.37136,1.23845 11.80133,2.09171 8.43352,1.29941 16.9046,2.2999 25.30296,3.80472 4.05122,0.58055 8.08856,1.20281 12.17077,1.55595 3.28693,0.25256 6.5848,0.32194 9.88072,0.34696 0.51113,5.6e-4 1.036,0.11545 1.5334,0.002 0.43532,-0.0996 1.56896,-0.83172 1.17782,-0.62186 -4.62902,2.48352 -9.18485,5.09964 -13.89145,7.44288 -0.28938,0.14407 0.4596,-0.48488 0.53195,-0.79171 0.20195,-0.85647 -0.49109,-2.00376 -0.77575,-2.66345 -3.17319,-5.19731 -4.8357,-10.99088 -6.35084,-16.793 -1.10205,-3.51625 -1.23874,-6.12028 0.74302,-9.31939 0.53833,-1.05189 1.63781,-1.64676 2.38141,-2.51724 0.77617,-0.90858 0.85697,-1.38536 1.33284,-2.51891 0.23181,-1.71777 1.30264,-3.64192 1.05298,-5.41876 5.25117,-2.44816 10.50233,-4.89631 15.75349,-7.34447 0,0 -15.24456,8.28967 -15.24456,8.28967 l 0,0 c 5.13392,-2.70831 10.26784,-5.41662 15.40176,-8.12494 -0.54971,0.21181 -1.14095,4.8823 -1.44133,5.52006 -0.7279,2.98584 -0.97621,3.63665 -3.36519,5.47715 -2.50465,2.72831 -2.54849,4.67745 -1.71373,8.20897 1.1886,5.78182 2.8279,11.4762 6.33014,16.39693 0.33063,0.62334 2.42698,4.52807 1.35188,5.25712 -7.96992,5.40459 -11.13587,9.44466 -18.73529,9.27869 -3.28867,-0.0493 -6.57105,-0.17455 -9.84054,-0.5501 -4.11224,-0.42332 -8.22632,-0.91442 -12.28148,-1.70802 -8.03124,-1.8981 -16.22134,-3.03572 -24.37383,-4.32581 -5.58534,-0.81821 -11.32136,-1.43991 -16.81235,-2.76923 -0.87594,-0.21206 -1.77927,-0.41185 -2.56534,-0.84151 -0.62142,-0.33965 -2.1252,-0.98948 -1.56328,-1.41514 4.61242,-3.49402 10.02788,-5.86346 15.04183,-8.79519 5.64993,1.41738 11.05854,3.65079 16.70101,5.10449 6.37566,1.79478 12.73846,3.59924 19.17017,5.20054 3.59206,0.89431 8.01867,1.88538 11.63113,2.90282 1.28966,0.36324 2.55592,0.8001 3.83388,1.20014 4.02513,1.24511 8.13625,2.54078 12.37896,2.866 0.85212,0.0653 3.24174,-0.46745 2.56409,0.0363 -4.08091,3.03364 -8.76547,5.22109 -13.1482,7.83163 0.47927,0.25864 0.88894,0.77779 1.43781,0.7759 0.34038,-8e-4 -0.409,-0.52656 -0.62779,-0.77867 -0.2746,-0.31644 -0.55264,-0.63102 -0.85161,-0.92609 -0.76887,-0.75884 -1.46986,-1.34399 -2.39787,-1.92683 -0.44268,-0.27803 -0.92046,-0.49996 -1.38068,-0.74994 -3.62015,-1.61738 -7.10178,-3.54673 -10.5321,-5.50311 -3.06529,-1.9264 -6.42929,-3.69504 -8.34256,-6.81534 -2.40842,-3.47249 -4.21566,-7.27429 -6.29216,-10.93466 -5.10869,-9.60217 -11.80356,-18.19314 -19.3131,-26.17722 -8.76007,-10.41784 -17.3374,-21.00651 -24.91663,-32.27095 -0.66496,-1.00925 -1.40444,-1.97606 -1.99488,-3.02775 -3.53884,-6.30332 -5.04838,-13.7007 -8.64153,-20.00774 -0.63159,-1.08696 -1.1887,-2.21765 -1.89478,-3.2609 -0.97159,-1.43556 -2.7227,-3.22571 -3.90964,-4.48677 -3.11333,-3.30775 -6.13659,-6.68839 -9.22053,-10.02229 -8.3935,-8.75416 -16.75157,-17.5217 -25.99104,-25.46357 -2.35583,-2.02498 -4.7101,-4.06208 -7.22769,-5.89608 -1.8314,-1.33413 -3.86135,-2.3923 -5.79202,-3.58845 -1.72759,-0.54346 -3.43274,-1.15879 -5.18276,-1.63038 -2.36468,-0.63722 -8.6972,-1.77381 -10.95393,-2.78665 -4.4995,-2.01939 -6.85362,-6.97671 -9.79308,-10.46753 -4.8073,-6.88279 -9.25345,-13.95817 -13.89769,-20.94305 -3.31901,-4.99175 -7.60853,-11.42416 -11.56696,-16.00816 -1.8664,-2.16136 -4.01307,-4.08124 -6.01961,-6.12186 -2.07435,-1.46906 -4.10555,-2.99685 -6.22306,-4.40716 -8.44329,-5.62347 -17.8706,-10.35207 -23.5601,-18.96462 -3.03524,-4.38119 -6.13004,-8.72748 -8.76728,-13.35076 -2.34521,-3.81822 -4.85502,-7.5286 -7.59784,-11.09301 -1.65589,-2.36727 -3.62138,-4.4243 -6.45023,-5.4532 -1.61416,-0.65972 -3.2072,-1.37011 -4.62164,-2.38502 -0.59676,-0.42255 -1.09058,-0.79808 -1.45336,-1.42978 -4.25885,-6.76062 10.60676,-1.76019 14.09707,-11.0262 2.58901,-1.90152 -21.04019,12.21448 -12.81353,7.06494 1.50731,-1.58079 1.09752,-3.57677 -1.01853,-4.36975 -5.09968,-3.23975 -9.86084,-7.00037 -14.23835,-11.10625 -0.98828,-1.03136 -2.01759,-2.02733 -2.96483,-3.09407 -3.83795,-4.32208 -6.76322,-9.2819 -10.45415,-13.71101 -6.40117,-7.72638 -11.76228,-16.21769 -18.4049,-23.77247 -5.522,-6.46529 -11.02701,-12.90862 -17.24638,-18.77129 -3.87863,-3.65618 -5.5611,-4.54251 -8.97079,-8.36536 -1.1252,-1.26154 -2.07715,-2.65833 -3.11572,-3.98749 -2.39247,-4.24542 -2.79063,-4.62191 -4.60451,-9.19794 -2.09716,-5.29071 -3.27017,-10.85652 -5.29725,-16.16714 -2.68838,-5.08147 -5.64908,-7.28564 -11.19651,-9.54339 -10.43016,-5.05325 -23.01896,-10.63012 -31.71217,-18.08931 -1.99895,-1.71519 -3.67761,-3.75042 -5.51642,-5.62563 -1.38656,-1.98052 -2.90441,-3.8808 -4.15969,-5.94154 -2.57096,-4.22058 -3.27072,-6.68456 -5.34785,-10.97966 -1.50704,-3.1163 -2.96013,-5.60492 -4.7521,-8.58167 -1.03853,-1.72517 -2.11269,-3.43007 -3.16903,-5.14511 -11.50783,-18.31452 -23.24073,-36.656 -38.59583,-52.2641 -3.53062,-3.54114 -10.93229,-10.80739 -14.3349,-14.78905 -1.721608,-2.01459 -3.323717,-4.12893 -4.808924,-6.31234 -1.750397,-2.57327 -3.045003,-5.48215 -4.621248,-8.16071 -0.366614,-0.623 -0.795024,-1.21005 -1.192538,-1.81508 0,0 14.92205,-8.39713 14.92205,-8.39713 z"
       inkscape:connector-curvature="0" />
    <path
       style="fill:#241c1c;fill-opacity:0.1254902;stroke:#000000;stroke-width:0.81590527;stroke-opacity:1"
       id="path3340"
       d="m 122.91625,388.33828 c -0.0993,-6.76702 2.78276,-13.11592 4.4857,-19.567 0.83782,-3.17377 1.52654,-6.3826 2.2898,-9.57391 3.54935,-15.57909 7.29586,-31.11746 10.69613,-46.72771 3.03561,-15.8937 7.4689,-31.42783 13.30765,-46.56014 3.26404,-6.48001 5.57693,-14.048 10.82946,-19.42134 3.01736,-3.08676 5.57225,-4.24463 9.39065,-6.56231 14.03032,-8.27226 28.60155,-15.60576 42.95088,-23.32555 6.04228,-3.25069 11.99537,-6.5417 18.19661,-9.50106 9.37202,-4.75721 16.88246,-5.25585 27.24398,-5.74942 9.99342,-0.25005 19.94651,-1.20706 29.92637,-1.71974 6.1418,-0.53702 12.20377,-0.3314 18.26738,0.69863 6.58709,1.38976 13.94416,0.85897 20.10538,3.88629 1.60834,0.79027 3.01088,1.92254 4.51631,2.8838 7.77762,6.76814 12.99946,15.59167 19.23038,23.58712 2.58686,3.58884 5.81223,6.76851 7.71028,10.79379 0.33829,0.71744 4.21961,10.6632 4.3584,11.01741 3.09604,7.83196 6.76769,15.42855 10.69609,22.89722 2.76933,4.73731 4.51267,9.92076 6.87675,14.84445 2.23571,4.3042 3.86731,8.94048 6.55662,13.01178 2.93224,8.62269 5.44695,17.37547 7.92196,26.1295 3.1959,14.32408 8.40512,28.07687 13.53768,41.82739 2.70518,7.1341 5.38563,14.27571 7.77387,21.51575 3.16557,9.84211 1.26681,2.13228 -21.37942,13.81992 -0.86337,-1.01304 -1.3994,-2.20162 -1.73279,-3.46127 0.79319,1.50247 -0.75995,-0.68366 -1.04312,-1.0567 -0.0403,-0.0538 -0.12085,-0.22787 -0.12099,-0.16142 -0.003,1.57181 -0.92406,-0.0926 -1.34889,-0.7035 -0.30103,-0.50685 -0.16707,-0.26423 -0.40703,-0.72518 0,0 21.62797,-11.8105 21.62797,-11.8105 l 0,0 c 0.0811,0.21459 0.0339,0.11039 0.14136,0.31267 -0.12014,-0.74456 1.32271,0.43196 1.51096,0.89448 0.50658,0.73436 1.14687,1.30925 1.62705,2.06342 -0.0614,0.64534 0.14896,1.34666 0.62113,1.81041 -27.04839,15.93679 -19.24181,19.57831 -21.09467,10.35729 -1.68692,-7.43941 -4.14519,-14.68573 -6.66231,-21.89468 -5.00831,-13.81311 -10.18128,-27.57878 -14.00102,-41.75948 -2.52165,-8.47352 -4.72908,-17.08693 -8.20454,-25.25244 -2.52788,-4.25828 -4.24217,-8.94573 -6.47939,-13.34942 -2.35724,-4.90798 -4.19267,-10.03447 -6.9299,-14.76648 -3.69229,-7.67173 -6.84835,-15.5726 -10.12474,-23.41509 -1.02346,-2.42044 -3.29443,-7.96694 -4.61482,-10.4718 -2.03064,-3.85226 -5.23561,-6.95098 -7.62236,-10.57951 -5.7086,-7.9824 -10.5973,-16.6999 -18.48409,-22.95391 -1.43753,-0.7849 -2.79694,-1.72193 -4.31261,-2.35469 -6.29055,-2.62618 -13.51651,-2.10815 -20.10838,-3.42311 -5.94492,-0.73071 -11.88619,-0.80056 -17.86847,-0.396 -9.85599,0.4606 -19.70009,1.13745 -29.56129,1.49648 -4.38211,0.32823 -7.05391,0.41064 -11.31836,1.15947 -5.41377,0.95064 -10.4354,3.15841 -15.40283,5.35747 -8.60009,4.19108 -16.9659,8.81034 -25.40102,13.30216 -2.67434,1.42412 -10.57335,5.89724 -8.01575,4.28507 4.17311,-2.6305 8.5801,-4.89668 12.87016,-7.34503 -2.46802,1.38221 -6.9992,3.70699 -9.3181,5.6933 -5.77463,4.94637 -8.33939,12.61875 -11.77433,19.02213 -2.35177,5.72404 -3.90628,9.20285 -5.81881,15.15522 -3.24875,10.11107 -5.40604,20.48779 -7.27066,30.90551 -3.47932,15.76004 -8.40313,31.21044 -11.43957,47.07284 -1.82131,9.2385 -1.56116,8.42366 -3.54002,16.78271 -0.56938,2.40517 -1.34006,4.76949 -1.76946,7.20167 -0.29252,1.65679 -0.20092,2.3806 -0.16017,3.99607 0,0 -21.93705,10.80697 -21.93705,10.80697 z"
       inkscape:connector-curvature="0" />
    <path
       style="fill:#241c1c;fill-opacity:0.1254902;stroke:#000000;stroke-width:0.81590527;stroke-opacity:1"
       id="path3344"
       d="m 433.6514,466.58779 c 0.17792,10.93372 0.68567,21.85992 1.13594,32.78563 0.84049,11.2287 -1.14104,22.29381 -3.72527,33.19073 -3.59281,12.2113 -4.62639,24.86918 -6.28261,37.40449 -1.34342,10.03344 -3.55841,17.32285 -10.02133,25.28756 -5.14126,5.51606 -11.6519,9.4945 -17.89449,13.71025 -6.47198,4.66023 -11.58873,10.70936 -17.90541,15.54318 -21.49873,13.90517 -24.58722,14.5712 -45.51703,18.03544 -7.20298,0.85582 -14.32207,2.26198 -21.52248,3.12605 -6.49979,1.34696 -13.13608,1.70933 -19.75905,1.94856 -7.96905,0.21227 -15.94137,0.23296 -23.9127,0.28322 -6.4873,0.14019 -12.93496,0.0421 -19.39335,-0.53829 -7.98552,-1.0621 -15.8451,-2.6182 -23.37284,-5.42401 -10.65461,-4.96065 -18.48642,-13.92402 -26.81038,-21.80451 -4.13689,-3.95626 -8.46819,-7.78933 -11.89959,-12.35653 -2.86134,-4.96913 -4.73442,-10.39905 -6.69411,-15.74216 -2.20782,-5.61139 -2.75109,-11.584 -3.88136,-17.42695 -0.97069,-2.52252 -3.42062,-3.79299 -5.18059,-5.77625 -1.96512,-2.95404 -2.60954,-6.47163 -3.74316,-9.75313 -0.0477,-0.13807 -2.81029,-7.42081 -2.82492,-7.45939 -1.92581,-5.73394 -3.88033,-11.34177 -6.83804,-16.65561 -4.91551,-11.67784 -10.65347,-22.95525 -17.71742,-33.5547 -0.77943,-1.077 -1.51687,-2.18356 -2.33828,-3.23097 -3.481,-4.43879 -0.68444,-0.19764 -4.11189,-5.14956 -2.28717,-3.30445 -4.16077,-6.83866 -6.19881,-10.28661 -2.04044,-3.57374 -4.62237,-7.01467 -5.62112,-11.03059 -0.48425,-3.70343 0.1067,-7.4468 0.65262,-11.11664 0.65498,-2.18946 1.63375,-4.15947 1.79048,-6.48719 -0.18989,-1.57391 -1.30178,-2.86792 -1.9703,-4.3334 -0.20565,-0.33275 -0.27234,-0.72686 -0.45647,-1.06868 -0.039,-0.0724 0.0402,0.15903 0.0706,0.23518 0.14177,0.35469 0.36441,0.68423 0.44556,1.0563 0.0256,0.1174 -0.25078,0.39142 -0.14272,0.33244 6.89976,-3.76654 13.72374,-7.66138 20.58561,-11.49207 -0.93472,1.53619 -0.99843,3.36358 -1.04508,5.10195 0.0823,4.44479 -0.42433,8.85376 -0.94673,13.26278 -0.91945,9.07038 -3.4879,17.8001 -6.39365,26.4261 -0.84258,2.80056 -2.62181,5.19563 -3.76047,7.86504 -0.38847,2.33123 -0.98217,4.61536 -1.49924,6.92523 -0.71051,3.90491 -1.69984,7.74363 -2.86373,11.54291 -2.52179,8.78159 -0.0909,3.20931 -22.78308,11.28557 -0.62229,0.22148 -0.17872,-1.27414 -0.18248,-1.91526 -0.008,-1.3888 0.35263,-5.18438 0.45544,-6.38935 0.64224,-7.26653 1.34815,-14.54752 2.42129,-21.76844 1.59782,-11.03258 4.26959,-21.89957 7.34577,-32.62595 1.45663,-4.45949 2.54769,-9.11668 5.35067,-12.99113 7.4178,-7.63049 17.6121,-17.25307 28.82256,-15.97601 2.14841,1.43317 4.56164,1.81177 6.99719,2.53123 5.26271,1.43055 10.43818,3.39266 14.80826,6.64241 2.43928,1.81393 4.05688,3.59777 6.1632,5.72271 3.79038,4.55616 6.78618,9.60952 9.19607,14.95262 1.59318,3.46482 3.2815,6.87674 5.25646,10.1541 0.15987,0.33164 0.31974,0.66328 0.4796,0.99492 0,0 -21.51683,11.70741 -21.51683,11.70741 l 0,0 c -0.1175,-0.27956 -0.235,-0.55913 -0.35251,-0.83869 -1.78966,-3.44924 -3.50707,-6.92826 -5.13519,-10.45125 -2.29312,-5.08075 -4.90131,-10.03683 -8.51309,-14.38377 -2.00134,-2.02882 -3.40647,-3.63043 -5.78046,-5.29893 -4.34771,-3.05569 -9.53194,-4.66366 -14.70928,-5.8154 -1.59376,-0.32907 -2.3866,-0.40842 -3.77319,-0.91547 -0.79991,-0.29252 -1.58878,-0.85472 -2.4532,-0.97576 -0.20371,-0.0286 -0.4099,0.0367 -0.61485,0.0551 -7.41628,1.46163 -24.52915,13.55523 18.12313,-10.69208 0.48849,-0.2777 -1.03011,0.46512 -1.50617,0.76235 -1.35723,0.84735 -1.77813,1.39757 -2.91735,2.52556 -3.41432,3.40256 -4.69495,8.06676 -6.36432,12.42018 -3.46654,10.45685 -6.16602,21.19973 -7.10237,32.16882 -1.28459,7.13996 -2.11318,14.39216 -2.60131,21.6185 -0.0345,0.65276 -0.27497,4.91569 -0.28083,5.92134 -0.002,0.44441 0.47293,1.1041 0.0777,1.33111 -7.12603,4.09391 -14.6514,7.50005 -21.97711,11.25007 0.56697,-0.38092 0.27209,-0.11916 0.78009,-0.88283 1.38399,-3.64537 2.55596,-7.35276 3.05623,-11.2199 0.29871,-2.43336 1.25089,-4.66519 1.29152,-7.12014 0.58345,-3.06259 2.79957,-5.37864 4.09517,-8.18047 3.25636,-8.42892 6.13317,-17.02138 6.91145,-26.04998 0.35612,-4.26326 0.56379,-8.49687 0.3465,-12.76956 0.035,-2.05352 0.0816,-4.11048 0.55444,-6.12424 0.88168,-0.53802 19.92685,-21.07417 23.61584,-10.53769 0.72072,1.78208 2.11366,3.24354 2.33081,5.17894 0.16674,2.26985 0.0103,5.10195 -1.56163,6.89293 -0.76602,3.36697 -1.48713,6.85625 -1.12405,10.30947 0.70061,3.84171 3.06061,7.20411 4.83714,10.63815 0.32269,0.56757 3.59641,6.33813 3.88349,6.79195 2.61223,4.12936 6.06414,7.68491 8.52082,11.91198 6.52171,10.90569 12.12792,22.25302 18.01154,33.48471 0.98656,1.62245 2.43665,3.87438 3.23527,5.65028 1.63652,3.6392 1.97062,7.7649 3.69071,11.38559 2.07894,5.42286 3.88406,11.0399 6.60178,16.18247 2.1158,2.23198 4.78441,3.89395 5.67693,6.99925 1.01506,5.75751 1.28272,11.66825 3.46917,17.19484 1.91412,5.10717 3.85716,10.25302 6.59276,15.01172 3.38647,4.39164 7.25303,8.41672 11.16373,12.37183 7.94658,7.83609 15.64427,16.56499 26.33372,20.89789 7.54638,2.46287 15.34898,3.91312 23.26617,4.75398 6.40164,0.48751 12.80861,0.40747 19.22685,0.40203 7.92839,0.025 15.86113,0.0132 23.78331,-0.32465 6.64477,-0.37137 13.24674,-1.0314 19.7951,-2.21324 7.08714,-0.93584 14.14747,-2.06065 21.23026,-3.02493 4.464,-0.72 8.95121,-1.34323 13.32328,-2.5053 8.47553,-2.25274 23.80786,-10.91957 -9.44406,7.07143 2.41884,-1.68221 3.8309,-2.55975 6.04191,-4.52719 4.03592,-3.59129 7.39283,-7.88509 11.82524,-11.07574 6.14363,-4.27896 12.71838,-8.01976 18.16196,-13.17632 6.9014,-7.36502 9.53778,-14.45702 11.03816,-24.30198 1.86337,-12.57073 2.48947,-25.36169 6.19957,-37.61711 2.72949,-10.67691 4.44952,-21.46415 3.66805,-32.5001 -0.10332,-10.84944 -0.28111,-21.72214 -1.41273,-32.52442 0,0 21.61348,-10.83596 21.61348,-10.83596 z"
       inkscape:connector-curvature="0" />
  </g>
</svg>
